<svg width="33" height="33" viewBox="0 0 33 33" fill="none" xmlns="http://www.w3.org/2000/svg">
<rect width="33" height="33" rx="8" fill="currentColor"/>
<path d="M24.1283 20.4295C23.6443 19.5928 23.0619 18.0014 23.0619 15.1877V14.6053C23.0619 10.9713 20.1416 7.99361 16.5486 7.969H16.4994C15.6373 7.96792 14.7835 8.13693 13.9868 8.46634C13.1901 8.79575 12.4662 9.2791 11.8566 9.8887C11.247 10.4983 10.7637 11.2222 10.4343 12.0189C10.1048 12.8155 9.93584 13.6694 9.93692 14.5315V15.1877C9.93692 18.0014 9.3545 19.5928 8.87052 20.4295C8.75089 20.6287 8.68702 20.8564 8.68557 21.0888C8.68413 21.3211 8.74517 21.5496 8.86231 21.7502C8.97717 21.9509 9.14327 22.1174 9.34363 22.2327C9.54398 22.348 9.77138 22.408 10.0025 22.4065H22.9963C23.2275 22.408 23.4549 22.348 23.6552 22.2327C23.8556 22.1174 24.0217 21.9509 24.1365 21.7502C24.2537 21.5496 24.3147 21.3211 24.3133 21.0888C24.3118 20.8564 24.248 20.6287 24.1283 20.4295V20.4295Z" fill="white"/>
<path d="M19.1172 23.7185H13.8672C13.6931 23.7185 13.5262 23.7876 13.4031 23.9107C13.2801 24.0338 13.2109 24.2007 13.2109 24.3748C13.2109 24.5488 13.2801 24.7157 13.4031 24.8388C13.5262 24.9619 13.6931 25.031 13.8672 25.031H19.1172C19.2912 25.031 19.4582 24.9619 19.5812 24.8388C19.7043 24.7157 19.7734 24.5488 19.7734 24.3748C19.7734 24.2007 19.7043 24.0338 19.5812 23.9107C19.4582 23.7876 19.2912 23.7185 19.1172 23.7185Z" fill="white"/>
</svg>
