<svg width="33" height="33" viewBox="0 0 33 33" fill="none" xmlns="http://www.w3.org/2000/svg">
<rect width="33" height="33" rx="8" fill="currentColor"/>
<path d="M25.7189 18.5506L24.1439 14.2276C24.0238 13.9016 23.7794 13.6364 23.4642 13.4904C23.1489 13.3443 22.7886 13.3291 22.4623 13.4483L17.5486 15.2366L18.451 10.085C18.482 9.91495 18.4791 9.74046 18.4425 9.57153C18.4059 9.40261 18.3363 9.24257 18.2377 9.10062C18.0376 8.81666 17.7343 8.62232 17.3927 8.55921L12.8646 7.76351C12.5223 7.70617 12.1711 7.78591 11.8871 7.98548C11.6031 8.18505 11.4091 8.4884 11.347 8.82992L9.36189 20.0846C9.2775 20.5669 9.28989 21.0611 9.39833 21.5385C9.50677 22.0159 9.7091 22.467 9.99353 22.8655C10.2677 23.2553 10.6173 23.5862 11.0217 23.8384C11.4262 24.0907 11.8771 24.2591 12.3478 24.3338C12.5299 24.3594 12.7135 24.3731 12.8974 24.3748H24.39C24.7381 24.3748 25.0719 24.2366 25.3181 23.9904C25.5642 23.7443 25.7025 23.4104 25.7025 23.0623V19.4776C25.8229 19.1813 25.8287 18.8509 25.7189 18.5506ZM12.9056 21.7498C12.7109 21.7498 12.5206 21.6921 12.3587 21.5839C12.1969 21.4758 12.0707 21.322 11.9962 21.1422C11.9217 20.9623 11.9022 20.7644 11.9402 20.5734C11.9782 20.3825 12.0719 20.2071 12.2096 20.0694C12.3472 19.9317 12.5226 19.838 12.7136 19.8C12.9045 19.762 13.1025 19.7815 13.2823 19.856C13.4622 19.9305 13.616 20.0567 13.7241 20.2186C13.8323 20.3805 13.89 20.5708 13.89 20.7655C13.89 21.0265 13.7863 21.2769 13.6017 21.4615C13.4171 21.6461 13.1667 21.7498 12.9056 21.7498ZM24.39 23.0623H17.1467L24.39 20.4291V23.0623ZM16.3099 21.9713C16.3764 21.782 16.4258 21.5871 16.4576 21.3889L17.2861 16.7295L22.9135 14.6787L24.4802 18.9936L16.3099 21.9713Z" fill="white"/>
</svg>
