<svg width="33" height="33" viewBox="0 0 33 33" fill="none" xmlns="http://www.w3.org/2000/svg">
<rect width="33" height="33" rx="8" fill="currentColor"/>
<path d="M25.4826 14.5555C25.4623 14.4638 25.4224 14.3775 25.3658 14.3025C25.3092 14.2275 25.2371 14.1655 25.1545 14.1207L23.2022 13.0379C23.0983 12.8247 22.9834 12.6196 22.8576 12.4227L22.8904 10.1914C22.8912 10.0979 22.8726 10.0051 22.836 9.91903C22.7993 9.83293 22.7452 9.75533 22.6772 9.69106C21.7051 8.80969 20.5555 8.14677 19.3057 7.74692C19.2159 7.71893 19.1213 7.71031 19.0279 7.72163C18.9346 7.73294 18.8447 7.76393 18.7643 7.81254L16.8529 8.96098C16.6151 8.95278 16.3854 8.95278 16.1475 8.96098L14.2362 7.81254C14.1557 7.76393 14.0658 7.73294 13.9725 7.72163C13.8792 7.71031 13.7845 7.71893 13.6947 7.74692C12.4433 8.14707 11.2932 8.81307 10.3233 9.69926C10.2546 9.76132 10.2001 9.83736 10.1633 9.92225C10.1265 10.0071 10.1083 10.0989 10.11 10.1914L10.151 12.4227C10.0197 12.6196 9.9049 12.8247 9.79006 13.0379L7.84592 14.1207C7.76225 14.1641 7.68936 14.2257 7.63258 14.3009C7.57581 14.3762 7.53658 14.4632 7.51779 14.5555C7.23886 15.8366 7.23886 17.1627 7.51779 18.4438C7.53817 18.5355 7.57801 18.6218 7.63462 18.6968C7.69123 18.7718 7.76329 18.8338 7.84592 18.8786L9.79826 19.9614C9.90292 20.1736 10.0207 20.3791 10.151 20.5766L10.11 22.8079C10.1092 22.9014 10.1278 22.9942 10.1645 23.0803C10.2012 23.1664 10.2552 23.244 10.3233 23.3082C11.2967 24.1878 12.4459 24.8505 13.6947 25.2524C13.7845 25.2804 13.8792 25.289 13.9725 25.2777C14.0658 25.2664 14.1557 25.2354 14.2362 25.1868L16.1475 24.0383H16.8529L18.7725 25.1868C18.8723 25.2524 18.9894 25.2867 19.1088 25.2852C19.1755 25.2823 19.2416 25.2713 19.3057 25.2524C20.5571 24.8522 21.7072 24.1862 22.6772 23.3C22.7458 23.238 22.8003 23.162 22.8371 23.0771C22.8739 22.9922 22.8921 22.9004 22.8904 22.8079L22.8576 20.5766C22.9807 20.3797 23.0955 20.1747 23.2104 19.9614L25.1627 18.8786C25.2442 18.8333 25.3149 18.7711 25.3701 18.6961C25.4253 18.621 25.4637 18.535 25.4826 18.4438C25.7616 17.1627 25.7616 15.8366 25.4826 14.5555V14.5555ZM20.1096 16.4997C20.1096 17.2135 19.8979 17.9114 19.5013 18.5049C19.1047 19.0985 18.541 19.5611 17.8815 19.8343C17.2219 20.1075 16.4962 20.1789 15.7961 20.0397C15.0959 19.9004 14.4528 19.5566 13.948 19.0519C13.4432 18.5471 13.0995 17.904 12.9602 17.2038C12.8209 16.5037 12.8924 15.7779 13.1656 15.1184C13.4388 14.4589 13.9014 13.8952 14.495 13.4986C15.0885 13.102 15.7863 12.8903 16.5002 12.8903C17.4575 12.8903 18.3755 13.2706 19.0524 13.9474C19.7293 14.6243 20.1096 15.5424 20.1096 16.4997Z" fill="white"/>
</svg>
