<svg width="296" height="182" viewBox="0 0 296 182" fill="none" xmlns="http://www.w3.org/2000/svg">
<path d="M236 150C236 166.569 222.569 180 206 180H32C15.4315 180 2 166.569 2 150V32C2 15.4315 15.4315 2 32 2H103.5" stroke="#20B486" stroke-width="3"/>
<path d="M234.5 102.5H237.5V150H234.5V102.5Z" fill="#20B486"/>
<path d="M295.061 105.061C295.646 104.475 295.646 103.525 295.061 102.939L285.515 93.3934C284.929 92.8076 283.979 92.8076 283.393 93.3934C282.808 93.9792 282.808 94.9289 283.393 95.5147L291.879 104L283.393 112.485C282.808 113.071 282.808 114.021 283.393 114.607C283.979 115.192 284.929 115.192 285.515 114.607L295.061 105.061ZM235 105.5L294 105.5V102.5L235 102.5V105.5Z" fill="#20B486"/>
</svg>
