<svg width="20" height="21" viewBox="0 0 20 21" fill="none" xmlns="http://www.w3.org/2000/svg">
<path d="M16.6999 6.18373L11.8999 2.8254C10.5915 1.90873 8.5832 1.95873 7.32487 2.93373L3.14987 6.19206C2.31654 6.84206 1.6582 8.1754 1.6582 9.2254V14.9754C1.6582 17.1004 3.3832 18.8337 5.5082 18.8337H14.4915C16.6165 18.8337 18.3415 17.1087 18.3415 14.9837V9.33373C18.3415 8.20873 17.6165 6.8254 16.6999 6.18373ZM10.6249 15.5004C10.6249 15.8421 10.3415 16.1254 9.99987 16.1254C9.6582 16.1254 9.37487 15.8421 9.37487 15.5004V13.0004C9.37487 12.6587 9.6582 12.3754 9.99987 12.3754C10.3415 12.3754 10.6249 12.6587 10.6249 13.0004V15.5004Z" fill="currentColor"/>
</svg>
