<svg width="18" height="18" viewBox="0 0 18 18" fill="none" xmlns="http://www.w3.org/2000/svg">
<path fill-rule="evenodd" clip-rule="evenodd" d="M14.1433 8.375C13.4914 8.39183 12.8719 8.66261 12.4168 9.12962C11.9617 9.59662 11.707 10.2229 11.707 10.875C11.707 11.5271 11.9617 12.1534 12.4168 12.6204C12.8719 13.0874 13.4914 13.3582 14.1433 13.375C14.7952 13.3582 15.4147 13.0874 15.8698 12.6204C16.3249 12.1534 16.5796 11.5271 16.5796 10.875C16.5796 10.2229 16.3249 9.59662 15.8698 9.12962C15.4147 8.66261 14.7952 8.39183 14.1433 8.375ZM14.1433 9.625C14.3075 9.62505 14.4701 9.65745 14.6218 9.72034C14.7735 9.78323 14.9113 9.87538 15.0274 9.99153C15.1434 10.1077 15.2355 10.2456 15.2983 10.3973C15.3611 10.549 15.3934 10.7116 15.3933 10.8758C15.3933 11.04 15.3609 11.2026 15.298 11.3543C15.2351 11.506 15.1429 11.6438 15.0268 11.7599C14.9106 11.876 14.7727 11.968 14.621 12.0308C14.4693 12.0936 14.3067 12.1259 14.1425 12.1258C13.8108 12.1257 13.4928 11.9939 13.2584 11.7593C13.024 11.5247 12.8924 11.2066 12.8925 10.875C12.8926 10.5434 13.0244 10.2254 13.259 9.99094C13.4936 9.75652 13.8117 9.62489 14.1433 9.625Z" fill="currentColor"/>
<path fill-rule="evenodd" clip-rule="evenodd" d="M11.7738 17.9587C13.0405 17.9587 15.2513 17.9587 16.518 17.9478C16.7507 17.9469 16.9798 17.8899 17.1858 17.7816C17.3919 17.6733 17.5687 17.517 17.7015 17.3258C17.8342 17.1346 17.9188 16.9142 17.9483 16.6833C17.9777 16.4524 17.951 16.2179 17.8705 15.9995C17.5952 15.2313 17.0894 14.567 16.4222 14.0973C15.755 13.6275 14.9589 13.3754 14.143 13.3753C13.3265 13.377 12.5302 13.6292 11.8617 14.0979C11.1932 14.5666 10.6846 15.2292 10.4046 15.9962C10.3234 16.2167 10.2966 16.4535 10.3267 16.6866C10.3567 16.9197 10.4426 17.142 10.577 17.3347C10.7115 17.5275 10.8905 17.6849 11.0989 17.7935C11.3073 17.9021 11.5388 17.9588 11.7738 17.9587ZM11.7738 16.7087C11.7402 16.7087 11.7062 16.7007 11.6763 16.6851C11.6465 16.6696 11.6208 16.6471 11.6016 16.6195C11.5823 16.5919 11.57 16.56 11.5658 16.5267C11.5615 16.4933 11.5654 16.4594 11.5771 16.4278L11.578 16.427C11.7697 15.9003 12.1185 15.445 12.5772 15.1229C13.0359 14.8007 13.5824 14.627 14.143 14.6253C15.3196 14.6253 16.3213 15.377 16.6955 16.4253L16.6971 16.432C16.7083 16.4617 16.7121 16.4938 16.708 16.5253C16.7039 16.5568 16.6922 16.5869 16.6738 16.6128C16.6558 16.6391 16.6317 16.6605 16.6035 16.6753C16.5753 16.6901 16.544 16.6979 16.5121 16.6978H16.5071C15.243 16.7087 13.0371 16.7087 11.7738 16.7087ZM16.293 6.50033V4.41699C16.293 3.58819 15.9637 2.79333 15.3777 2.20728C14.7916 1.62123 13.9968 1.29199 13.168 1.29199H3.16797C2.33917 1.29199 1.54431 1.62123 0.95826 2.20728C0.372209 2.79333 0.0429688 3.58819 0.0429688 4.41699V14.417C0.0429688 15.2458 0.372209 16.0407 0.95826 16.6267C1.54431 17.2128 2.33917 17.542 3.16797 17.542H8.16797C8.33373 17.542 8.4927 17.4761 8.60991 17.3589C8.72712 17.2417 8.79297 17.0828 8.79297 16.917C8.79297 16.7512 8.72712 16.5923 8.60991 16.4751C8.4927 16.3578 8.33373 16.292 8.16797 16.292H3.16797C2.67069 16.292 2.19377 16.0944 1.84214 15.7428C1.49051 15.3912 1.29297 14.9143 1.29297 14.417V4.41699C1.29297 3.91971 1.49051 3.4428 1.84214 3.09117C2.19377 2.73954 2.67069 2.54199 3.16797 2.54199H13.168C13.6653 2.54199 14.1422 2.73954 14.4938 3.09117C14.8454 3.4428 15.043 3.91971 15.043 4.41699V6.50033C15.043 6.66609 15.1088 6.82506 15.226 6.94227C15.3432 7.05948 15.5022 7.12533 15.668 7.12533C15.8337 7.12533 15.9927 7.05948 16.1099 6.94227C16.2271 6.82506 16.293 6.66609 16.293 6.50033Z" fill="currentColor"/>
<path fill-rule="evenodd" clip-rule="evenodd" d="M4 0.666992V3.16699C4 3.33275 4.06585 3.49172 4.18306 3.60893C4.30027 3.72614 4.45924 3.79199 4.625 3.79199C4.79076 3.79199 4.94973 3.72614 5.06694 3.60893C5.18415 3.49172 5.25 3.33275 5.25 3.16699V0.666992C5.25 0.501232 5.18415 0.342261 5.06694 0.22505C4.94973 0.10784 4.79076 0.0419922 4.625 0.0419922C4.45924 0.0419922 4.30027 0.10784 4.18306 0.22505C4.06585 0.342261 4 0.501232 4 0.666992ZM11.0833 0.666992V3.16699C11.0833 3.33275 11.1492 3.49172 11.2664 3.60893C11.3836 3.72614 11.5426 3.79199 11.7083 3.79199C11.8741 3.79199 12.0331 3.72614 12.1503 3.60893C12.2675 3.49172 12.3333 3.33275 12.3333 3.16699V0.666992C12.3333 0.501232 12.2675 0.342261 12.1503 0.22505C12.0331 0.10784 11.8741 0.0419922 11.7083 0.0419922C11.5426 0.0419922 11.3836 0.10784 11.2664 0.22505C11.1492 0.342261 11.0833 0.501232 11.0833 0.666992ZM4 7.95866H6.58333C6.74909 7.95866 6.90807 7.89281 7.02528 7.7756C7.14249 7.65839 7.20833 7.49942 7.20833 7.33366C7.20833 7.1679 7.14249 7.00893 7.02528 6.89172C6.90807 6.77451 6.74909 6.70866 6.58333 6.70866H4C3.83424 6.70866 3.67527 6.77451 3.55806 6.89172C3.44085 7.00893 3.375 7.1679 3.375 7.33366C3.375 7.49942 3.44085 7.65839 3.55806 7.7756C3.67527 7.89281 3.83424 7.95866 4 7.95866ZM4 11.292H8.16667C8.33243 11.292 8.4914 11.2261 8.60861 11.1089C8.72582 10.9917 8.79167 10.8328 8.79167 10.667C8.79167 10.5012 8.72582 10.3423 8.60861 10.2251C8.4914 10.1078 8.33243 10.042 8.16667 10.042H4C3.83424 10.042 3.67527 10.1078 3.55806 10.2251C3.44085 10.3423 3.375 10.5012 3.375 10.667C3.375 10.8328 3.44085 10.9917 3.55806 11.1089C3.67527 11.2261 3.83424 11.292 4 11.292Z" fill="currentColor"/>
</svg>
