<svg width="20" height="18" viewBox="0 0 20 18" fill="none" xmlns="http://www.w3.org/2000/svg">
<path d="M3.7109 14.5947C3.92662 14.5947 4.1015 14.4198 4.1015 14.2041C4.1015 13.9884 3.92662 13.8135 3.7109 13.8135C3.49519 13.8135 3.32031 13.9884 3.32031 14.2041C3.32031 14.4198 3.49519 14.5947 3.7109 14.5947Z" fill="currentColor"/>
<path d="M19.4954 5.48469C19.3527 5.42387 19.0581 5.36263 18.6859 5.63495C18.4884 5.77982 18.2598 6.01523 18.0387 6.2429C17.8698 6.41687 17.6155 6.67865 17.5216 6.73024C16.8904 6.96288 16.5119 7.36835 16.074 7.83761C15.898 8.02611 15.716 8.22105 15.4974 8.4283C15.4655 8.45853 15.443 8.46599 15.4408 8.46674C15.3804 8.44115 15.3769 8.23566 15.2896 8.00896C15.1914 7.75231 15.0393 7.57888 14.8374 7.49358C14.7033 7.43682 14.4826 7.39538 14.1928 7.51979C13.981 7.61087 13.4813 7.91991 13.4736 7.92534C13.5399 7.3555 13.5848 6.91667 12.8288 6.63326C11.419 6.10506 9.27854 5.8379 7.01584 5.59265C6.88472 5.54171 7.36624 5.65026 4.92172 5.36216V3.89201C5.81208 3.71054 6.48409 2.92151 6.48409 1.97835C6.48409 0.901487 5.60799 0.0253906 4.53113 0.0253906C3.45427 0.0253906 2.57818 0.901487 2.57818 1.97835C2.57818 2.92147 3.25019 3.71054 4.14054 3.89201V5.26435C3.39166 5.16378 2.57282 5.02922 2.04826 4.84377C1.77051 4.74561 1.45573 4.63437 1.18162 4.79033C0.906757 4.94692 0.845278 5.25768 0.774073 5.61749C0.620649 6.39324 0.476989 6.97202 0.350203 7.48264C0.142409 8.31999 -0.00777376 8.92498 0.00031148 9.6773C0.0185521 11.3486 0.504213 12.5117 1.96897 13.6127C2.14138 13.7422 2.3862 13.7076 2.51588 13.5351C2.64547 13.3627 2.61075 13.1178 2.4383 12.9882C1.91069 12.5916 1.52932 12.187 1.26766 11.7432H8.58625L6.88515 15.1454C6.36812 14.9575 5.88645 14.7715 5.45059 14.5912C5.40319 14.5715 5.3524 14.5614 5.3011 14.5615C5.2498 14.5615 5.19901 14.5716 5.15163 14.5912C5.10424 14.6109 5.0612 14.6397 5.02494 14.676C4.98869 14.7123 4.95995 14.7553 4.94036 14.8028C4.8579 15.0021 4.95262 15.2305 5.15194 15.313C5.68967 15.5355 6.29344 15.7658 6.94694 15.9978L6.94913 15.9986C7.79949 16.299 8.00955 16.4808 8.61715 17.2299C8.7128 17.3478 8.81174 17.4698 8.92095 17.5966C9.21597 17.9396 9.64776 18.073 10.054 17.8984C10.4723 17.7187 10.742 17.2552 10.6954 16.7965C10.6721 16.565 10.716 16.5494 10.8877 16.5264C13.2562 16.2083 12.3799 16.2919 13.743 15.9666C14.0618 15.8909 14.3024 15.9627 14.5004 16.1927C14.8447 16.5922 15.2961 17.2615 15.6042 17.5038C15.8372 17.6874 16.1056 17.7594 16.3598 17.7066C16.6122 17.6543 16.8278 17.4833 16.9672 17.2249C17.2812 16.6408 17.3298 16.0371 17.108 15.479C16.6856 14.4162 16.9993 13.9884 17.3028 13.5746C17.6891 13.0479 17.9577 12.4153 17.9062 11.7708C17.8307 10.821 18.2773 10.2081 18.8455 9.46364C19.4656 8.65121 20.1685 7.73039 19.9639 6.21146C19.8984 5.72482 19.6423 5.54722 19.4954 5.48469ZM3.3594 1.97831C3.3594 1.33219 3.88506 0.806535 4.53117 0.806535C5.17729 0.806535 5.70295 1.33219 5.70295 1.97831C5.70295 2.62443 5.17729 3.15008 4.53117 3.15008C3.88506 3.15008 3.3594 2.62443 3.3594 1.97831ZM6.48413 10.9619H0.938121C0.837349 10.5946 0.787041 10.1762 0.781455 9.66878C0.774464 9.0163 0.907343 8.48103 1.10842 7.67083C1.23095 7.17735 1.38336 6.56323 1.54041 5.76912C1.55108 5.71514 1.5733 5.60308 1.59553 5.51695C1.64072 5.53015 1.70282 5.55027 1.78793 5.5803C2.28554 5.75627 3.01915 5.90383 4.14058 6.05222V7.44663C4.14058 7.66231 4.31549 7.83722 4.53117 7.83722C4.74686 7.83722 4.92176 7.66231 4.92176 7.44663V6.14877C5.41461 6.20623 5.94316 6.26263 6.48413 6.3209V10.9619ZM7.26531 10.9619V6.40566C9.3515 6.63564 11.2963 6.89324 12.5547 7.36472C12.6741 7.40948 12.7162 7.43983 12.728 7.44995C12.735 7.47924 12.7361 7.55709 12.7077 7.75707C12.6837 7.92698 12.6764 8.07193 12.6852 8.1966L11.3191 10.962L7.26531 10.9619ZM12.7336 15.427C12.4327 15.5172 12.3362 15.5436 10.7838 15.7521C10.1701 15.8344 9.85458 16.2436 9.91825 16.8751C9.93215 17.012 9.83947 17.1403 9.74565 17.1806C9.7153 17.1936 9.63452 17.2282 9.51309 17.087C9.41126 16.9687 9.316 16.8513 9.22389 16.7377C8.81174 16.2296 8.42025 15.7475 7.62384 15.4148L9.45965 11.7431H12.7336V15.427ZM16.6729 13.1125C16.3252 13.5865 15.7998 14.3028 16.382 15.7676C16.5179 16.1093 16.4833 16.4752 16.2793 16.8546C16.2453 16.9177 16.2133 16.9392 16.2011 16.9417C16.1879 16.9443 16.1472 16.9371 16.0873 16.8899C15.8869 16.7323 15.4203 16.0635 15.0923 15.6828C14.7052 15.2332 14.162 15.0639 13.562 15.2067L13.5148 15.218V11.7431H17.122C17.1236 11.773 17.1251 11.8029 17.1274 11.8329C17.1634 12.2839 16.9398 12.7488 16.6729 13.1125ZM18.2245 8.98962C17.7846 9.56598 17.3316 10.1595 17.1744 10.9619H12.1904L13.2346 8.84811C13.5255 8.86893 13.7879 8.66793 13.9105 8.57395L13.9146 8.57083C14.1297 8.45318 14.3879 8.27292 14.5313 8.22601C14.5779 8.30671 14.5993 8.42779 14.6276 8.54689C14.7064 8.87885 14.9269 9.12871 15.2174 9.21523C15.4962 9.29807 15.8018 9.21601 16.0348 8.99517C16.2708 8.77151 16.4696 8.55852 16.6451 8.37057C17.0468 7.94018 17.3371 7.62927 17.7973 7.46116C18.0145 7.38183 18.2435 7.15333 18.5991 6.78715C18.7978 6.58256 19.0034 6.37098 19.1477 6.26505C19.1582 6.25735 19.1678 6.25079 19.1766 6.24517C19.1812 6.26392 19.1858 6.28716 19.1897 6.31563C19.3511 7.51373 18.8039 8.23066 18.2245 8.98962Z" fill="currentColor"/>
</svg>
