<svg width="20" height="20" viewBox="0 0 20 20" fill="none" xmlns="http://www.w3.org/2000/svg">
<path d="M10.0789 14.8495C9.99603 14.8495 9.91654 14.8166 9.85794 14.758C9.79933 14.6994 9.76641 14.6199 9.76641 14.537V12.687C9.76641 12.6041 9.79933 12.5246 9.85794 12.466C9.91654 12.4074 9.99603 12.3745 10.0789 12.3745C10.1618 12.3745 10.2413 12.4074 10.2999 12.466C10.3585 12.5246 10.3914 12.6041 10.3914 12.687V14.537C10.3914 14.6199 10.3585 14.6994 10.2999 14.758C10.2413 14.8166 10.1618 14.8495 10.0789 14.8495ZM4.02734 14.8495C3.94446 14.8495 3.86498 14.8166 3.80637 14.758C3.74777 14.6994 3.71484 14.6199 3.71484 14.537V12.687C3.71484 12.6041 3.74777 12.5246 3.80637 12.466C3.86498 12.4074 3.94446 12.3745 4.02734 12.3745C4.11022 12.3745 4.18971 12.4074 4.24831 12.466C4.30692 12.5246 4.33984 12.6041 4.33984 12.687V14.537C4.33984 14.6199 4.30692 14.6994 4.24831 14.758C4.18971 14.8166 4.11022 14.8495 4.02734 14.8495ZM13.7942 10.2754H17.5805C17.7055 10.2752 17.8252 10.2254 17.9135 10.1369C18.0018 10.0484 18.0514 9.92854 18.0514 9.80355V8.61543C18.0514 8.49044 18.0018 8.37056 17.9135 8.28209C17.8252 8.19363 17.7055 8.1438 17.5805 8.14355H13.7942C13.6692 8.1438 13.5494 8.19363 13.4612 8.28209C13.3729 8.37056 13.3233 8.49044 13.3233 8.61543V9.80355C13.3233 10.0636 13.5345 10.2754 13.7942 10.2754ZM13.9483 8.76887H17.4264V9.65012H13.9483V8.76887ZM13.6358 11.7129H17.7389C17.8218 11.7129 17.9013 11.68 17.9599 11.6214C18.0185 11.5628 18.0514 11.4833 18.0514 11.4004C18.0514 11.3175 18.0185 11.2381 17.9599 11.1795C17.9013 11.1209 17.8218 11.0879 17.7389 11.0879H13.6358C13.5529 11.0879 13.4734 11.1209 13.4148 11.1795C13.3562 11.2381 13.3233 11.3175 13.3233 11.4004C13.3233 11.4833 13.3562 11.5628 13.4148 11.6214C13.4734 11.68 13.5529 11.7129 13.6358 11.7129ZM13.6358 13.222H17.7389C17.8218 13.222 17.9013 13.1891 17.9599 13.1305C18.0185 13.0719 18.0514 12.9924 18.0514 12.9095C18.0514 12.8266 18.0185 12.7471 17.9599 12.6885C17.9013 12.6299 17.8218 12.597 17.7389 12.597H13.6358C13.5529 12.597 13.4734 12.6299 13.4148 12.6885C13.3562 12.7471 13.3233 12.8266 13.3233 12.9095C13.3233 12.9924 13.3562 13.0719 13.4148 13.1305C13.4734 13.1891 13.5529 13.222 13.6358 13.222Z" fill="currentColor"/>
<path d="M18.3516 4.00515C18.3728 3.86859 18.3872 3.72952 18.3872 3.58702C18.3872 2.09421 17.1728 0.879836 15.6803 0.879836H13.245C11.7525 0.879836 10.5381 2.09421 10.5381 3.58671C10.5381 3.72577 10.5506 3.86171 10.5712 3.99515H9.815V3.32921C9.815 2.04765 9.28625 1.36265 8.84313 1.0139C8.2 0.507648 7.27 0.337336 6.355 0.559523C5.04531 0.877648 4.29406 1.88702 4.29406 3.32921V3.99515H1.74563C1.36563 3.99564 1.00135 4.14684 0.73269 4.41556C0.464026 4.68428 0.312913 5.0486 0.3125 5.42859V15.2983C0.312913 15.6783 0.464026 16.0426 0.73269 16.3113C1.00135 16.58 1.36563 16.7312 1.74563 16.7317H6.94156L5.95937 18.9108H5.34437C5.26149 18.9108 5.18201 18.9437 5.1234 19.0023C5.0648 19.0609 5.03187 19.1404 5.03187 19.2233C5.03187 19.3062 5.0648 19.3856 5.1234 19.4442C5.18201 19.5028 5.26149 19.5358 5.34437 19.5358H14.6556C14.7385 19.5358 14.818 19.5028 14.8766 19.4442C14.9352 19.3856 14.9681 19.3062 14.9681 19.2233C14.9681 19.1404 14.9352 19.0609 14.8766 19.0023C14.818 18.9437 14.7385 18.9108 14.6556 18.9108H14.0406L13.0575 16.7317H18.2531C19.0438 16.7317 19.6875 16.0886 19.6875 15.2983V5.42859C19.6875 4.67171 19.0956 4.05671 18.3516 4.00515ZM13.2453 1.50515H15.6803C16.8281 1.50515 17.7622 2.4389 17.7622 3.58702C17.7622 4.73515 16.8281 5.66921 15.6803 5.66921H14.6522C14.6089 5.66921 14.5661 5.67821 14.5265 5.69564C14.4869 5.71308 14.4514 5.73855 14.4222 5.77046L13.5784 6.68952C13.4075 6.82421 13.2878 6.83827 13.2516 6.81609C13.2212 6.7964 13.1922 6.7164 13.2191 6.6114L13.3847 6.06702C13.3984 6.022 13.4018 5.97446 13.3945 5.92796C13.3873 5.88146 13.3696 5.83719 13.3429 5.79846C13.3162 5.75973 13.281 5.72754 13.2401 5.7043C13.1992 5.68105 13.1535 5.66735 13.1066 5.66421C12.0169 5.59202 11.1631 4.67952 11.1631 3.58671C11.1638 3.03477 11.3833 2.50562 11.7736 2.11533C12.1639 1.72505 12.6931 1.5055 13.245 1.50484L13.2453 1.50515ZM10.7469 4.62015C11.0834 5.42921 11.8003 6.04671 12.6806 6.23452L12.6175 6.44234C12.5219 6.81265 12.6388 7.16577 12.9147 7.34234C13.0272 7.41421 13.1537 7.44952 13.2881 7.44952C13.5122 7.44952 13.7569 7.35109 13.9906 7.16015C14.0022 7.15077 14.0128 7.14046 14.0231 7.12921L14.7897 6.29421H15.6803C16.8069 6.29421 17.7741 5.6014 18.1812 4.62015H18.2531C18.6994 4.62015 19.0625 4.98265 19.0625 5.42859V14.2245H12.2859V11.8451C12.2859 9.81108 10.7712 8.06484 8.78813 7.74827V6.96296C9.10855 6.70477 9.36708 6.37809 9.54472 6.00691C9.72237 5.63573 9.81461 5.22946 9.81469 4.81796V4.62015H10.7469ZM5.9125 9.66015C5.9075 9.66452 5.90156 9.66734 5.89688 9.67202L5.79125 9.7539L4.88937 8.49702C5.09875 8.42827 5.31656 8.37952 5.54125 8.35171L6.55062 9.1664L5.9125 9.66015ZM6.26719 11.0901L5.73688 14.2245H2.4475V11.8451C2.4475 10.527 3.19844 9.35359 4.30219 8.75077L5.47219 10.3817C5.49664 10.4159 5.52773 10.4448 5.56362 10.4667C5.5995 10.4885 5.63943 10.5029 5.68101 10.509C5.72259 10.5151 5.76497 10.5127 5.80561 10.502C5.84624 10.4913 5.8843 10.4725 5.9175 10.4467L5.98594 10.3936L6.26719 11.0901ZM7.05437 8.76984L5.94562 7.87452V7.34421C6.29486 7.49864 6.67251 7.57842 7.05437 7.57842C7.43624 7.57842 7.81389 7.49864 8.16313 7.34421V7.87515L7.05437 8.76984ZM7.05437 9.56671L7.60344 9.99171L7.30094 10.7423H6.80094L6.49938 9.99609L7.05437 9.56671ZM6.85437 11.3673H7.24813L7.73063 14.2245H6.37063L6.85437 11.3673ZM7.55813 9.1664L8.5675 8.35171C8.79187 8.37952 9.00969 8.42859 9.21938 8.49702L8.3175 9.7539L7.55813 9.1664ZM8.1175 10.3892L8.19125 10.4467C8.22441 10.4726 8.26247 10.4914 8.30312 10.5022C8.34377 10.5129 8.38617 10.5153 8.42778 10.5093C8.46939 10.5032 8.50934 10.4888 8.54522 10.4668C8.5811 10.4449 8.61217 10.416 8.63656 10.3817L9.80625 8.75046C10.9097 9.35359 11.6606 10.527 11.6606 11.8451V14.2242H8.36375L7.83469 11.0898L8.1175 10.3892ZM6.50187 1.16671C7.23219 0.990773 7.96281 1.11671 8.45656 1.50484C8.93281 1.87984 9.17938 2.4764 9.18906 3.27859H8.16406C6.69313 3.27859 6.54156 2.99109 6.26 2.45702C6.23034 2.4015 6.18463 2.35621 6.12883 2.32705C6.07304 2.2979 6.00975 2.28624 5.94723 2.2936C5.88472 2.30095 5.82586 2.32698 5.77836 2.36829C5.73086 2.40959 5.69691 2.46426 5.68094 2.52515C5.49031 3.26515 5.47281 3.28671 4.91906 3.28234C4.93438 2.16171 5.495 1.4114 6.50187 1.16671ZM4.91906 3.90671L4.96875 3.90734C5.52969 3.90734 5.8375 3.82546 6.075 3.31296C6.41531 3.6889 6.94844 3.90359 8.16437 3.90359H9.18969V4.81796C9.18903 5.38408 8.96384 5.92682 8.56354 6.32712C8.16323 6.72743 7.62049 6.95261 7.05437 6.95327C6.48823 6.95269 5.94544 6.72754 5.54512 6.32721C5.1448 5.92689 4.91964 5.3841 4.91906 4.81796V3.90671ZM1.74563 4.62015H4.29406V4.81796C4.29414 5.22946 4.38638 5.63573 4.56403 6.00691C4.74167 6.37809 5.0002 6.70477 5.32062 6.96296V7.74796C3.33719 8.06484 1.8225 9.8114 1.8225 11.8451V14.2245H0.9375V5.42859C0.937748 5.2143 1.02296 5.00887 1.17445 4.85732C1.32594 4.70577 1.53134 4.62048 1.74563 4.62015ZM13.355 18.9108H6.64469L7.62687 16.7317H12.3719L13.355 18.9108ZM18.2531 16.1067H1.74563C1.53134 16.1064 1.32594 16.0211 1.17445 15.8695C1.02296 15.718 0.937748 15.5126 0.9375 15.2983V14.8495H19.0625V15.2983C19.0623 15.5128 18.9769 15.7184 18.8251 15.87C18.6733 16.0216 18.4676 16.1067 18.2531 16.1067Z" fill="currentColor"/>
<path d="M9.87244 15.1778L9.85712 15.1856C9.70306 15.2634 9.649 15.4475 9.7265 15.6012C9.78119 15.7096 9.89337 15.77 10.0087 15.77C10.0581 15.77 10.1081 15.759 10.154 15.7356C10.2261 15.6972 10.2803 15.6321 10.3049 15.5542C10.3296 15.4763 10.3228 15.3919 10.286 15.319C10.2492 15.2461 10.1853 15.1905 10.108 15.1641C10.0307 15.1377 9.94615 15.1426 9.87244 15.1778ZM12.844 3.31152H16.079C16.1619 3.31152 16.2414 3.2786 16.3 3.21999C16.3586 3.16139 16.3915 3.0819 16.3915 2.99902C16.3915 2.91614 16.3586 2.83666 16.3 2.77805C16.2414 2.71945 16.1619 2.68652 16.079 2.68652H12.844C12.7611 2.68652 12.6816 2.71945 12.623 2.77805C12.5644 2.83666 12.5315 2.91614 12.5315 2.99902C12.5315 3.0819 12.5644 3.16139 12.623 3.21999C12.6816 3.2786 12.7611 3.31152 12.844 3.31152ZM12.844 4.58809H13.7046C13.7875 4.58809 13.867 4.55516 13.9256 4.49656C13.9842 4.43795 14.0171 4.35847 14.0171 4.27559C14.0171 4.19271 13.9842 4.11322 13.9256 4.05461C13.867 3.99601 13.7875 3.96309 13.7046 3.96309H12.8437C12.7608 3.96309 12.6813 3.99601 12.6227 4.05461C12.5641 4.11322 12.5312 4.19271 12.5312 4.27559C12.5312 4.35847 12.5641 4.43795 12.6227 4.49656C12.6813 4.55516 12.7611 4.58809 12.844 4.58809ZM16.0787 3.96309H15.2181C15.1352 3.96309 15.0557 3.99601 14.9971 4.05461C14.9385 4.11322 14.9056 4.19271 14.9056 4.27559C14.9056 4.35847 14.9385 4.43795 14.9971 4.49656C15.0557 4.55516 15.1352 4.58809 15.2181 4.58809H16.079C16.1619 4.58809 16.2414 4.55516 16.3 4.49656C16.3586 4.43795 16.3915 4.35847 16.3915 4.27559C16.3915 4.19271 16.3586 4.11322 16.3 4.05461C16.2414 3.99601 16.1616 3.96309 16.0787 3.96309Z" fill="currentColor"/>
</svg>
