<svg width="20" height="20" viewBox="0 0 20 20" fill="none" xmlns="http://www.w3.org/2000/svg">
<path d="M7.96934 14.0889L0.433594 14.4925C0.433594 15.4632 1.21738 16.2503 2.18809 16.2503H7.96934V14.0889ZM16.472 14.0889L12.6048 14.3363L11.8691 15.1696L12.0381 16.2503H17.8131L16.472 14.0889Z" fill="white"/>
<path d="M2.1875 12.7344C1.21629 12.7344 0.429688 13.5218 0.429688 14.4922H7.26562L8.39844 14.0234L7.9625 12.7344H2.1875ZM17.8125 12.7344H12.0379L11.6992 13.7956L12.7344 14.4922H16.0547C16.0547 15.4629 16.8418 16.25 17.8125 16.25C18.7832 16.25 19.5703 15.4629 19.5703 14.4922C19.5703 13.5215 18.7832 12.7344 17.8125 12.7344Z" fill="white"/>
<path d="M17.6172 10.9687C18.0487 10.9687 18.3984 10.619 18.3984 10.1875C18.3984 9.75603 18.0487 9.40625 17.6172 9.40625C17.1857 9.40625 16.8359 9.75603 16.8359 10.1875C16.8359 10.619 17.1857 10.9687 17.6172 10.9687Z" fill="white"/>
<path d="M15.2734 3.91406V8.63477C14.2762 9.08984 12.2879 9.7668 10 9.80664C7.47344 9.85078 5.75156 9.10195 4.72656 8.63477V3.91406H15.2734Z" fill="white"/>
<path d="M18.3984 2.96875C14.7263 4.0791 15.5786 3.82148 10 5.50781L1.60156 2.96875L10 0.429688L18.3984 2.96875Z" fill="white"/>
<path d="M8.63281 16.2109V19.5703L10 18.7891L11.3672 19.5703V16.2109H8.63281Z" fill="white"/>
<path d="M12.166 13.5949C12.2902 13.8945 12.7344 14.148 12.7344 14.4922C12.7344 14.8363 12.2902 15.0898 12.166 15.3895C12.0379 15.6981 12.1663 16.193 11.9336 16.4258C11.6995 16.6592 11.2063 16.5297 10.8973 16.6582C10.5977 16.7824 10.3441 17.2266 10 17.2266C9.65586 17.2266 9.40234 16.7824 9.10273 16.6582C8.96836 16.6023 8.79961 16.5953 8.63281 16.5859C8.32215 16.5687 8.06102 16.5433 7.96211 16.25C7.87578 15.9949 7.93594 15.6352 7.83398 15.3895C7.70977 15.0898 7.26562 14.8363 7.26562 14.4922C7.26562 14.148 7.70977 13.8945 7.83398 13.5949C7.96207 13.2862 7.83367 12.7913 8.06641 12.5586C8.30039 12.325 8.79258 12.4547 9.10273 12.3262C9.40234 12.202 9.65586 11.7578 10 11.7578C10.3441 11.7578 10.5977 12.202 10.8973 12.3262C11.2074 12.4551 11.6996 12.325 11.9336 12.5586C12.1671 12.7921 12.0372 13.2845 12.166 13.5949Z" fill="white"/>
<path d="M1.48848 3.34267L4.33594 4.20353V8.63439C4.33594 8.7874 4.42531 8.92639 4.56453 8.98986C6.27633 9.77006 7.91352 10.2334 10.0068 10.1969C12.6921 10.1501 14.841 9.26111 15.4356 8.98979C15.5037 8.95869 15.5615 8.90866 15.602 8.84564C15.6425 8.78263 15.6641 8.7093 15.6641 8.63439V4.20365L18.5116 3.34264C18.5918 3.31836 18.6622 3.26889 18.7121 3.20154C18.7621 3.1342 18.7891 3.05256 18.7891 2.9687C18.7891 2.88484 18.7621 2.8032 18.7121 2.73587C18.6621 2.66854 18.5918 2.61909 18.5115 2.59482L10.113 0.0557606C10.0393 0.0334965 9.96067 0.0334965 9.88695 0.0557606L1.48852 2.59482C1.40823 2.61908 1.33788 2.66854 1.28787 2.73588C1.23787 2.80322 1.21087 2.88486 1.21086 2.96873C1.21086 3.05261 1.23785 3.13426 1.28785 3.2016C1.33784 3.26895 1.40819 3.31841 1.48848 3.34267ZM9.99316 9.41568C7.6773 9.45611 6.06461 8.80756 5.11719 8.38256V4.43971L9.88695 5.88174C9.96066 5.904 10.0393 5.904 10.113 5.88174L14.8828 4.43986V8.37916C14.113 8.70436 12.2567 9.37627 9.99316 9.41568ZM10 0.837792L17.0488 2.96885C16.9333 3.00377 16.3218 3.18869 10 5.09978L2.95129 2.96881L10 0.837792ZM17.6172 9.01564C16.971 9.01564 16.4453 9.54135 16.4453 10.1875C16.4453 10.8337 16.971 11.3594 17.6172 11.3594C18.2634 11.3594 18.7891 10.8337 18.7891 10.1875C18.7891 9.54135 18.2634 9.01564 17.6172 9.01564ZM17.6172 10.5781C17.4018 10.5781 17.2266 10.4029 17.2266 10.1875C17.2266 9.97213 17.4018 9.79689 17.6172 9.79689C17.8326 9.79689 18.0078 9.97213 18.0078 10.1875C18.0078 10.4029 17.8326 10.5781 17.6172 10.5781ZM17.8125 12.3438H12.2641C12.2468 12.3224 12.2289 12.3015 12.2096 12.2822C11.9673 12.0403 11.6352 12.0221 11.3684 12.0074C11.2494 12.0009 11.1145 11.9935 11.0469 11.9653C10.9874 11.9407 10.8916 11.8539 10.8071 11.7773C10.6055 11.5946 10.3546 11.3672 10 11.3672C9.64535 11.3672 9.39445 11.5946 9.19285 11.7774C9.10836 11.8539 9.01262 11.9407 8.9532 11.9653C8.72371 12.0604 8.08926 11.9047 7.73547 12.3438H2.1875C1.00016 12.3438 0.0390625 13.3046 0.0390625 14.4922C0.0390625 15.6769 1.00285 16.6407 2.1875 16.6407H7.73594C7.86516 16.801 8.03684 16.8899 8.24219 16.9344V19.5703C8.24216 19.6388 8.26012 19.706 8.29425 19.7653C8.32839 19.8246 8.37751 19.8739 8.4367 19.9083C8.49588 19.9426 8.56305 19.9608 8.63148 19.961C8.69991 19.9612 8.7672 19.9435 8.8266 19.9095L10 19.239L11.1734 19.9095C11.2328 19.9435 11.3001 19.9612 11.3685 19.961C11.4369 19.9607 11.5041 19.9425 11.5633 19.9082C11.6224 19.8738 11.6716 19.8246 11.7057 19.7653C11.7398 19.706 11.7578 19.6388 11.7578 19.5703V16.9343C11.9616 16.8901 12.1353 16.8011 12.2645 16.6406H17.8125C18.9971 16.6406 19.9609 15.6769 19.9609 14.4922C19.9609 13.3076 18.9971 12.3438 17.8125 12.3438ZM15.6996 14.8828C15.7672 15.2492 15.9284 15.5831 16.1569 15.8594H12.4849C12.4915 15.7406 12.4989 15.6063 12.5269 15.5391C12.5827 15.4043 12.88 15.1717 13.0271 14.8828H15.6996ZM8.67504 12.7872C8.85637 12.7772 9.06187 12.7659 9.2523 12.687C9.43691 12.6105 9.58598 12.4754 9.7175 12.3562C9.79762 12.2836 9.94672 12.1485 10 12.1485C10.0533 12.1485 10.2024 12.2836 10.2825 12.3562C10.414 12.4754 10.5631 12.6105 10.7473 12.6869C10.938 12.7661 11.1439 12.7774 11.3255 12.7874C11.4345 12.7934 11.6167 12.8035 11.6565 12.8339C11.6566 12.8339 11.6613 12.8403 11.6679 12.8596C11.7295 13.0416 11.6716 13.4226 11.8052 13.7445C11.8817 13.9291 12.0168 14.0782 12.136 14.2097C12.2086 14.2898 12.3438 14.4389 12.3438 14.4922C12.3438 14.5455 12.2086 14.6946 12.136 14.7747C12.0168 14.9062 11.8817 15.0553 11.8052 15.2397C11.6709 15.5634 11.7302 15.9403 11.6667 16.1271C11.6618 16.142 11.6579 16.1485 11.6581 16.1488C11.6111 16.1842 11.3834 16.1938 11.3226 16.1972C11.142 16.2072 10.9372 16.2186 10.7477 16.2974C10.563 16.3739 10.414 16.509 10.2825 16.6282C10.2024 16.7008 10.0533 16.836 10 16.836C9.94672 16.836 9.79762 16.7008 9.7175 16.6282C9.58598 16.509 9.43691 16.3739 9.2527 16.2976C9.06281 16.2186 8.85805 16.2073 8.67738 16.1972C8.62066 16.1941 8.38711 16.1841 8.34348 16.1506C8.3434 16.1505 8.33867 16.1442 8.33211 16.1249C8.27051 15.9429 8.3284 15.5619 8.19481 15.2399C8.11828 15.0553 7.9832 14.9063 7.86398 14.7747C7.79141 14.6946 7.65625 14.5455 7.65625 14.4922C7.65625 14.4389 7.79141 14.2898 7.86398 14.2097C7.9832 14.0782 8.11828 13.9291 8.19477 13.7447C8.32906 13.421 8.26977 13.044 8.33328 12.8573C8.33824 12.8423 8.34219 12.8358 8.34191 12.8356C8.38477 12.8033 8.56637 12.7933 8.67504 12.7872ZM2.1875 13.125H7.51512C7.50852 13.2438 7.50105 13.3781 7.47312 13.4453C7.41727 13.5801 7.12 13.8127 6.97289 14.1016H0.876797C1.0409 13.5483 1.55621 13.125 2.1875 13.125ZM0.877148 14.8828H6.97289C7.12004 15.1718 7.41719 15.4041 7.4732 15.5392C7.50109 15.6064 7.50855 15.7406 7.51508 15.8594H2.1875C1.56934 15.8594 1.04566 15.447 0.877148 14.8828ZM10.1938 18.4499C10.1348 18.4162 10.068 18.3984 9.99998 18.3984C9.932 18.3984 9.8652 18.4162 9.80617 18.4499L9.02344 18.8972V17.0624C9.25313 17.2326 9.53859 17.6172 10 17.6172C10.4613 17.6172 10.7471 17.2324 10.9766 17.0624V18.8972L10.1938 18.4499ZM17.8125 15.8594C17.0586 15.8594 16.4453 15.2461 16.4453 14.4922C16.4453 14.2765 16.2704 14.1016 16.0547 14.1016H13.0271C12.88 13.8126 12.5828 13.5803 12.5268 13.4452C12.4989 13.378 12.4914 13.2438 12.4849 13.125H17.8125C18.5664 13.125 19.1797 13.7383 19.1797 14.4922C19.1797 15.2461 18.5664 15.8594 17.8125 15.8594Z" fill="currentColor"/>
<path d="M9.80469 14.8828H10.1953C10.4111 14.8828 10.5859 14.7079 10.5859 14.4922C10.5859 14.2764 10.4111 14.1016 10.1953 14.1016H9.80469C9.58895 14.1016 9.41406 14.2764 9.41406 14.4922C9.41406 14.7079 9.58895 14.8828 9.80469 14.8828ZM17.6172 9.79688C17.4014 9.79688 17.2266 9.62199 17.2266 9.40625V3.20508C17.2266 2.98934 17.4014 2.81445 17.6172 2.81445C17.8329 2.81445 18.0078 2.98934 18.0078 3.20508V9.40625C18.0078 9.62199 17.8329 9.79688 17.6172 9.79688Z" fill="currentColor"/>
</svg>
