<svg width="20" height="20" viewBox="0 0 20 20" fill="none" xmlns="http://www.w3.org/2000/svg">
<path d="M10 16.875C9.83424 16.875 9.67527 16.8092 9.55806 16.6919C9.44085 16.5747 9.375 16.4158 9.375 16.25V3.125C9.375 2.95924 9.44085 2.80027 9.55806 2.68306C9.67527 2.56585 9.83424 2.5 10 2.5C10.1658 2.5 10.3247 2.56585 10.4419 2.68306C10.5592 2.80027 10.625 2.95924 10.625 3.125V16.25C10.625 16.4158 10.5592 16.5747 10.4419 16.6919C10.3247 16.8092 10.1658 16.875 10 16.875Z" fill="currentColor"/>
<path d="M18.6878 9.72068L16.1878 4.72068C16.1313 4.60641 16.041 4.5123 15.9292 4.45114C15.8174 4.38997 15.6894 4.36472 15.5628 4.3788L11.1815 4.8663C11.0973 4.87147 11.015 4.89365 10.9395 4.93149C10.8641 4.96934 10.7971 5.02206 10.7426 5.08649C10.6881 5.15093 10.6472 5.22573 10.6224 5.30639C10.5976 5.38705 10.5894 5.4719 10.5983 5.55582C10.6071 5.63974 10.6329 5.721 10.674 5.79469C10.7152 5.86838 10.7708 5.93298 10.8375 5.9846C10.9043 6.03621 10.9808 6.07377 11.0625 6.09501C11.1442 6.11625 11.2293 6.12073 11.3128 6.10818L14.5521 5.75005L12.5659 9.72255C12.4918 9.87091 12.4797 10.0426 12.5322 10.1999C12.5847 10.3572 12.6975 10.4872 12.8459 10.5613C12.9942 10.6354 13.166 10.6475 13.3233 10.595C13.4805 10.5425 13.6105 10.4297 13.6846 10.2813L15.6253 6.39818L17.5659 10.2794C17.64 10.4278 17.77 10.5406 17.9273 10.5931C18.0846 10.6456 18.2563 10.6335 18.4046 10.5594C18.553 10.4853 18.6658 10.3553 18.7183 10.198C18.7709 10.0407 18.7587 9.86903 18.6846 9.72068H18.6878ZM8.68776 5.14193L4.30651 5.6288C4.20268 5.64025 4.10337 5.67753 4.01766 5.73726C3.93195 5.79698 3.86258 5.87723 3.81589 5.97068L1.31589 10.9707C1.24179 11.119 1.22967 11.2907 1.28218 11.448C1.33469 11.6053 1.44753 11.7353 1.59589 11.8094C1.74424 11.8835 1.91595 11.8956 2.07325 11.8431C2.23055 11.7906 2.36054 11.6778 2.43464 11.5294L4.37526 7.64755L6.31589 11.5294C6.35257 11.6029 6.40337 11.6684 6.46538 11.7222C6.52738 11.7761 6.59939 11.8171 6.67727 11.8431C6.75516 11.8691 6.8374 11.8795 6.91931 11.8738C7.00121 11.868 7.08118 11.8461 7.15464 11.8094C7.22809 11.7727 7.29361 11.7219 7.34743 11.6599C7.40126 11.5979 7.44235 11.5259 7.46835 11.448C7.49435 11.3702 7.50475 11.2879 7.49897 11.206C7.49318 11.1241 7.47132 11.0441 7.43464 10.9707L5.33526 6.77193L8.82526 6.3838C8.9086 6.37704 8.98974 6.35362 9.06387 6.31493C9.138 6.27625 9.20361 6.22308 9.25682 6.15858C9.31003 6.09408 9.34976 6.01955 9.37365 5.93942C9.39754 5.85929 9.40511 5.77518 9.39591 5.69207C9.38671 5.60896 9.36092 5.52855 9.32008 5.45558C9.27924 5.38262 9.22417 5.31859 9.15814 5.26729C9.09211 5.21599 9.01645 5.17847 8.93566 5.15693C8.85486 5.1354 8.77056 5.1303 8.68776 5.14193Z" fill="currentColor"/>
<path d="M10 7.5C11.0355 7.5 11.875 6.66053 11.875 5.625C11.875 4.58947 11.0355 3.75 10 3.75C8.96447 3.75 8.125 4.58947 8.125 5.625C8.125 6.66053 8.96447 7.5 10 7.5Z" fill="currentColor"/>
<path d="M10 6.25C10.3452 6.25 10.625 5.97018 10.625 5.625C10.625 5.27982 10.3452 5 10 5C9.65482 5 9.375 5.27982 9.375 5.625C9.375 5.97018 9.65482 6.25 10 6.25Z" fill="currentColor"/>
<path d="M4.545 17.5C4.43784 17.5008 4.33228 17.474 4.23845 17.4223C4.14462 17.3705 4.06567 17.2955 4.00919 17.2045C3.95271 17.1134 3.92059 17.0093 3.91591 16.9023C3.91124 16.7952 3.93417 16.6888 3.9825 16.5931C4.14469 16.2996 4.38263 16.055 4.67151 15.8847C4.9604 15.7144 5.28967 15.6247 5.625 15.625H14.375C14.71 15.6251 15.0389 15.7149 15.3274 15.8852C15.6159 16.0554 15.8536 16.2999 16.0156 16.5931C16.064 16.6888 16.0869 16.7952 16.0822 16.9023C16.0775 17.0093 16.0454 17.1134 15.9889 17.2045C15.9325 17.2955 15.8535 17.3705 15.7597 17.4223C15.6658 17.474 15.5603 17.5008 15.4531 17.5H4.545ZM14.375 11.875C13.8777 11.875 13.4008 11.6775 13.0492 11.3258C12.6975 10.9742 12.5 10.4973 12.5 10H18.75C18.75 10.4973 18.5525 10.9742 18.2008 11.3258C17.8492 11.6775 17.3723 11.875 16.875 11.875H14.375ZM3.125 13.125C2.62772 13.125 2.15081 12.9275 1.79917 12.5758C1.44754 12.2242 1.25 11.7473 1.25 11.25H7.5C7.5 11.7473 7.30246 12.2242 6.95083 12.5758C6.59919 12.9275 6.12228 13.125 5.625 13.125H3.125Z" fill="currentColor"/>
</svg>
