<svg width="20" height="14" viewBox="0 0 20 14" fill="none" xmlns="http://www.w3.org/2000/svg">
<path d="M18.2295 0.866289V11.7727H1.76953V1.17684C1.76953 0.684922 2.16832 0.286133 2.66023 0.286133H17.6493C17.9697 0.286133 18.2295 0.545859 18.2295 0.866289Z" fill="currentColor"/>
<path d="M2.8477 10.2995V1.75895C2.8477 1.54098 3.02441 1.36426 3.24238 1.36426H16.7563C16.9743 1.36426 17.151 1.54098 17.151 1.75895V10.2994C17.151 10.5174 16.9743 10.6941 16.7563 10.6941H3.24234C3.02437 10.6941 2.8477 10.5174 2.8477 10.2995ZM19.5104 12.0507V13.4353C19.5104 13.5091 19.481 13.5799 19.4289 13.632C19.3767 13.6842 19.3059 13.7135 19.2321 13.7135H0.766484C0.6927 13.7135 0.621938 13.6842 0.569765 13.632C0.517592 13.5799 0.488281 13.5091 0.488281 13.4353V12.0507C0.488281 11.9769 0.517592 11.9062 0.569765 11.854C0.621938 11.8018 0.6927 11.7725 0.766484 11.7725H19.2321C19.2687 11.7725 19.3049 11.7797 19.3386 11.7937C19.3724 11.8076 19.403 11.8281 19.4289 11.854C19.4547 11.8798 19.4752 11.9105 19.4892 11.9442C19.5032 11.978 19.5104 12.0142 19.5104 12.0507Z" fill="white"/>
<path d="M11.6037 11.7725V12.4389C11.6037 12.5195 11.5717 12.5969 11.5146 12.6539C11.4576 12.7109 11.3803 12.743 11.2996 12.743H8.69863C8.61798 12.743 8.54063 12.7109 8.4836 12.6539C8.42657 12.5969 8.39453 12.5195 8.39453 12.4389V11.7725H11.6037Z" fill="currentColor"/>
<path d="M13.3879 7.31395C14.724 7.31395 15.8071 6.23084 15.8071 4.89477C15.8071 3.55869 14.724 2.47559 13.3879 2.47559C12.0519 2.47559 10.9688 3.55869 10.9688 4.89477C10.9688 6.23084 12.0519 7.31395 13.3879 7.31395Z" fill="currentColor"/>
<path d="M15.8059 4.89477H13.3867V2.47559C14.7243 2.47559 15.8059 3.55723 15.8059 4.89477Z" fill="white"/>
<path d="M17.3398 10.2992V1.75879C17.3398 1.43629 17.0775 1.17383 16.755 1.17383H3.24102C2.91852 1.17383 2.65625 1.43633 2.65625 1.75879V10.2992C2.65625 10.6217 2.91855 10.884 3.24102 10.884H16.755C17.0775 10.884 17.3398 10.6217 17.3398 10.2992ZM3.03668 10.2992V1.75879C3.0367 1.70458 3.05823 1.6526 3.09654 1.61426C3.13485 1.57591 3.18681 1.55433 3.24102 1.55426H16.755C16.8092 1.55433 16.8612 1.57591 16.8995 1.61426C16.9378 1.6526 16.9594 1.70458 16.9594 1.75879V10.2992C16.9593 10.3534 16.9378 10.4054 16.8995 10.4437C16.8612 10.482 16.8092 10.5035 16.755 10.5036H3.24102C3.18683 10.5035 3.13488 10.482 3.09656 10.4437C3.05825 10.4054 3.03671 10.3534 3.03668 10.2992Z" fill="currentColor"/>
<path d="M19.2311 11.5821H18.4184V0.866055C18.4184 0.441211 18.0729 0.0957031 17.648 0.0957031H2.65902C2.06293 0.0957031 1.57809 0.580547 1.57809 1.17664V11.5821H0.765352C0.506953 11.5821 0.296875 11.7922 0.296875 12.0506V13.4353C0.296875 13.6935 0.506953 13.9036 0.765352 13.9036H19.2311C19.4893 13.9036 19.6994 13.6935 19.6994 13.4353V12.0506C19.6994 11.7922 19.4893 11.5821 19.2311 11.5821ZM1.95852 1.17664C1.95852 0.79043 2.27281 0.476133 2.65902 0.476133H17.648C17.8629 0.476133 18.0379 0.651133 18.0379 0.866055V11.5821H1.95852V1.17664ZM11.4125 11.9626V12.4389C11.4125 12.4691 11.4005 12.498 11.3791 12.5193C11.3578 12.5407 11.3289 12.5527 11.2987 12.5527H8.69781C8.66763 12.5527 8.63869 12.5407 8.61734 12.5193C8.596 12.498 8.58399 12.4691 8.58395 12.4389V11.9626H11.4125ZM19.3189 13.4353C19.3189 13.4586 19.3097 13.4809 19.2932 13.4974C19.2767 13.5139 19.2544 13.5232 19.2311 13.5232H0.765352C0.742037 13.5232 0.719678 13.5139 0.703173 13.4974C0.686669 13.481 0.677367 13.4586 0.677305 13.4353V12.0506C0.677356 12.0273 0.686649 12.0049 0.70315 11.9884C0.719651 11.9719 0.742016 11.9626 0.765352 11.9626H8.20348V12.4389C8.20348 12.7114 8.42527 12.9332 8.69777 12.9332H11.2986C11.5711 12.9332 11.7929 12.7114 11.7929 12.4389V11.9626H19.2311C19.2544 11.9626 19.2767 11.9719 19.2932 11.9884C19.3096 12.005 19.3189 12.0273 19.3189 12.0506V13.4353H19.3189Z" fill="currentColor"/>
<path d="M13.387 2.28516C11.9481 2.28516 10.7776 3.45566 10.7776 4.89457C10.7776 6.33348 11.9481 7.50398 13.387 7.50398C14.8259 7.50398 15.9964 6.33348 15.9964 4.89457C15.9964 3.45566 14.8259 2.28516 13.387 2.28516ZM13.387 7.12352C12.158 7.12352 11.158 6.12356 11.158 4.89457C11.158 3.72977 12.0567 2.77227 13.1968 2.67523V4.89457C13.1968 4.91956 13.2017 4.9443 13.2112 4.96739C13.2208 4.99048 13.2348 5.01145 13.2525 5.02912C13.2701 5.04679 13.2911 5.0608 13.3142 5.07036C13.3373 5.07991 13.362 5.08482 13.387 5.08481H15.6064C15.5093 6.22488 14.5518 7.12352 13.387 7.12352ZM15.6063 4.70434H13.5772V2.67523C14.6378 2.76574 15.513 3.61121 15.6063 4.70434ZM7.85016 9.39242H4.38047V5.38258C4.38047 5.27742 4.29539 5.19234 4.19023 5.19234C4.08508 5.19234 4 5.27742 4 5.38258V9.58266C3.99998 9.60764 4.00489 9.63239 4.01445 9.65547C4.024 9.67856 4.03802 9.69954 4.05568 9.71721C4.07335 9.73487 4.09433 9.74889 4.11742 9.75844C4.1405 9.768 4.16525 9.77291 4.19023 9.77289H7.85012C7.95527 9.77289 8.04035 9.68781 8.04035 9.58266C8.04035 9.4775 7.95531 9.39242 7.85016 9.39242Z" fill="currentColor"/>
<path d="M5.2248 8.67749L6.20211 7.54581L6.74641 8.00577C6.78392 8.03749 6.83226 8.05347 6.88129 8.05035C6.93033 8.04723 6.97625 8.02527 7.00945 7.98905L7.88476 7.0346C7.91885 6.9974 7.93677 6.94819 7.93457 6.89778C7.93238 6.84737 7.91024 6.7999 7.87305 6.76581C7.83585 6.73172 7.78663 6.7138 7.73622 6.716C7.68582 6.7182 7.63835 6.74033 7.60426 6.77753L6.85246 7.59729L6.30391 7.13382C6.26569 7.10137 6.21618 7.08536 6.1662 7.08929C6.11622 7.09322 6.06982 7.11677 6.03715 7.15479L4.93687 8.42894C4.92055 8.44784 4.9081 8.46977 4.90025 8.49348C4.89241 8.5172 4.88931 8.54222 4.89114 8.56714C4.89296 8.59205 4.89968 8.61635 4.91091 8.63867C4.92214 8.66098 4.93765 8.68086 4.95656 8.69718C4.97546 8.71351 4.9974 8.72595 5.02111 8.7338C5.04482 8.74165 5.06985 8.74474 5.09476 8.74292C5.11967 8.74109 5.14398 8.73437 5.16629 8.72314C5.18861 8.71192 5.20849 8.6964 5.2248 8.67749ZM15.8077 8.43339H10.9693C10.8642 8.43339 10.7791 8.51847 10.7791 8.62362C10.7791 8.72878 10.8642 8.81386 10.9693 8.81386H15.8077C15.9129 8.81386 15.9979 8.72878 15.9979 8.62362C15.9979 8.51847 15.9129 8.43339 15.8077 8.43339ZM15.8077 9.3921H13.1925C13.0874 9.3921 13.0023 9.47718 13.0023 9.58233C13.0023 9.68749 13.0874 9.77257 13.1925 9.77257H15.8077C15.9129 9.77257 15.9979 9.68749 15.9979 9.58233C15.9979 9.47718 15.9129 9.3921 15.8077 9.3921Z" fill="currentColor"/>
</svg>
