<svg width="20" height="20" viewBox="0 0 20 20" fill="none" xmlns="http://www.w3.org/2000/svg">
<path d="M17.5326 15.8754L9.45446 18.8129C8.64196 19.1097 7.75133 18.6879 7.45446 17.8754L3.17321 6.12536C2.87633 5.31286 3.29821 4.42223 4.11071 4.12536L12.1888 1.18786C13.0013 0.890981 13.892 1.31286 14.1888 2.12536L18.4701 13.8754C18.7513 14.6879 18.3451 15.5785 17.5326 15.8754Z" fill="white"/>
<path d="M8.92306 19.375C8.07931 19.375 7.29806 18.8438 7.01681 18.0312L2.73556 6.29688C2.34493 5.25 2.89181 4.07812 3.95431 3.6875L12.0168 0.75C12.2512 0.671875 12.4856 0.625 12.7199 0.625C13.5637 0.625 14.3449 1.15625 14.6262 1.96875L18.9074 13.7031C19.2981 14.75 18.7512 15.9219 17.6887 16.3125L9.61056 19.25C9.39181 19.3281 9.15743 19.375 8.92306 19.375ZM12.7199 1.5625C12.5949 1.5625 12.4699 1.57812 12.3449 1.625L4.26681 4.5625C3.70431 4.76562 3.40743 5.39062 3.61056 5.96875L7.89181 17.7188C8.04806 18.1562 8.45431 18.4375 8.92306 18.4375C9.04806 18.4375 9.17306 18.4219 9.29806 18.375L17.3762 15.4375C17.9387 15.2344 18.2356 14.6094 18.0324 14.0312L13.7512 2.28125C13.5949 1.85938 13.1731 1.5625 12.7199 1.5625Z" fill="currentColor"/>
<path d="M11.5938 18.9062H3C2.14063 18.9062 1.4375 18.2031 1.4375 17.3438V4.84375C1.4375 3.98438 2.14063 3.28125 3 3.28125H11.5938C12.4531 3.28125 13.1562 3.98438 13.1562 4.84375V17.3438C13.1562 18.2031 12.4688 18.9062 11.5938 18.9062Z" fill="white"/>
<path d="M3 4.84375H11.5937V7.1875H3V4.84375ZM11.125 10.3125H3.15625C2.89062 10.3125 2.6875 10.1094 2.6875 9.84375C2.6875 9.57812 2.89062 9.375 3.15625 9.375H11.125C11.3906 9.375 11.5937 9.57812 11.5937 9.84375C11.5937 10.1094 11.3906 10.3125 11.125 10.3125ZM11.125 12.6562H3.15625C2.89062 12.6562 2.6875 12.4531 2.6875 12.1875C2.6875 11.9219 2.89062 11.7188 3.15625 11.7188H11.125C11.3906 11.7188 11.5937 11.9219 11.5937 12.1875C11.5937 12.4531 11.3906 12.6562 11.125 12.6562ZM6.84375 15H3.15625C2.89062 15 2.6875 14.7969 2.6875 14.5312C2.6875 14.2656 2.89062 14.0625 3.15625 14.0625H6.82812C7.09375 14.0625 7.29688 14.2656 7.29688 14.5312C7.29688 14.7969 7.09375 15 6.84375 15Z" fill="currentColor"/>
<path d="M11.5938 19.375H3C1.875 19.375 0.96875 18.4688 0.96875 17.3438V4.84375C0.96875 3.71875 1.875 2.8125 3 2.8125H11.5938C12.7188 2.8125 13.625 3.71875 13.625 4.84375V17.3438C13.625 18.4688 12.7188 19.375 11.5938 19.375ZM3 3.75C2.39063 3.75 1.90625 4.23438 1.90625 4.84375V17.3438C1.90625 17.9531 2.39063 18.4375 3 18.4375H11.5938C12.2031 18.4375 12.6875 17.9531 12.6875 17.3438V4.84375C12.6875 4.23438 12.2031 3.75 11.5938 3.75H3Z" fill="currentColor"/>
</svg>
