<svg width="18" height="20" viewBox="0 0 18 20" fill="none" xmlns="http://www.w3.org/2000/svg">
<path d="M6.5 16.5625H11.5C11.5 17.2255 11.2366 17.8614 10.7678 18.3303C10.2989 18.7991 9.66304 19.0625 9 19.0625C8.33696 19.0625 7.70107 18.7991 7.23223 18.3303C6.76339 17.8614 6.5 17.2255 6.5 16.5625Z" fill="white"/>
<path d="M9 2.50016C9.42074 2.50141 9.84001 2.54973 10.25 2.64422V2.50016C9.84348 2.4998 9.45315 2.34078 9.16213 2.05693C8.87111 1.77309 8.70238 1.38686 8.69187 0.980469C8.42302 1.04835 8.18445 1.20389 8.01388 1.42251C7.84331 1.64113 7.75046 1.91037 7.75 2.18766V2.64422C8.15999 2.54973 8.57926 2.50141 9 2.50016ZM15.875 14.6877C15.5435 14.6877 15.2255 14.556 14.9911 14.3215C14.7567 14.0871 14.625 13.7692 14.625 13.4377H11.1875C9.69566 13.4377 8.26492 12.845 7.21002 11.7901C6.15513 10.7352 5.5625 9.3045 5.5625 7.81266V3.67953C4.88181 4.20357 4.33058 4.87695 3.95131 5.64773C3.57204 6.41852 3.37487 7.26611 3.375 8.12516V13.4377C3.375 13.7692 3.2433 14.0871 3.00888 14.3215C2.77446 14.556 2.45652 14.6877 2.125 14.6877C1.79348 14.6877 1.47554 14.8194 1.24112 15.0538C1.0067 15.2882 0.875 15.6061 0.875 15.9377V16.5627H17.125V15.9377C17.125 15.6061 16.9933 15.2882 16.7589 15.0538C16.5245 14.8194 16.2065 14.6877 15.875 14.6877Z" fill="white"/>
<path d="M15.875 14.375C15.6264 14.375 15.3879 14.2762 15.2121 14.1004C15.0363 13.9246 14.9375 13.6861 14.9375 13.4375V8.125C14.9352 6.82383 14.506 5.55937 13.7156 4.52573C12.9253 3.49209 11.8176 2.74639 10.5625 2.40313V2.1875C10.5625 1.7731 10.3979 1.37567 10.1049 1.08265C9.81183 0.78962 9.4144 0.625 9 0.625C8.5856 0.625 8.18817 0.78962 7.89515 1.08265C7.60212 1.37567 7.4375 1.7731 7.4375 2.1875V2.40313C6.18243 2.74639 5.0747 3.49209 4.28436 4.52573C3.49403 5.55937 3.06478 6.82383 3.0625 8.125V13.4375C3.0625 13.6861 2.96373 13.9246 2.78791 14.1004C2.6121 14.2762 2.37364 14.375 2.125 14.375C1.71075 14.3755 1.31361 14.5403 1.02069 14.8332C0.727776 15.1261 0.562996 15.5233 0.5625 15.9375V16.5625C0.5625 16.6454 0.595424 16.7249 0.654029 16.7835C0.712634 16.8421 0.79212 16.875 0.875 16.875H6.20594C6.28484 17.5607 6.61316 18.1935 7.12838 18.6528C7.64361 19.1122 8.30975 19.366 9 19.366C9.69025 19.366 10.3564 19.1122 10.8716 18.6528C11.3868 18.1935 11.7152 17.5607 11.7941 16.875H17.125C17.2079 16.875 17.2874 16.8421 17.346 16.7835C17.4046 16.7249 17.4375 16.6454 17.4375 16.5625V15.9375C17.437 15.5233 17.2722 15.1261 16.9793 14.8332C16.6864 14.5403 16.2892 14.3755 15.875 14.375ZM8.0625 2.1875C8.0625 1.93886 8.16127 1.7004 8.33709 1.52459C8.5129 1.34877 8.75136 1.25 9 1.25C9.24864 1.25 9.4871 1.34877 9.66291 1.52459C9.83873 1.7004 9.9375 1.93886 9.9375 2.1875V2.26906C9.31723 2.16031 8.68277 2.16031 8.0625 2.26906V2.1875ZM9 18.75C8.47414 18.7493 7.96605 18.5596 7.56852 18.2153C7.17098 17.8711 6.91052 17.3954 6.83469 16.875H11.1653C11.0895 17.3954 10.829 17.8711 10.4315 18.2153C10.0339 18.5596 9.52586 18.7493 9 18.75ZM16.8125 16.25H1.1875V15.9375C1.1875 15.6889 1.28627 15.4504 1.46209 15.2746C1.6379 15.0988 1.87636 15 2.125 15C2.53925 14.9995 2.93639 14.8347 3.22931 14.5418C3.52222 14.2489 3.687 13.8517 3.6875 13.4375V8.125C3.6875 6.71604 4.24721 5.36478 5.2435 4.3685C6.23978 3.37221 7.59104 2.8125 9 2.8125C10.409 2.8125 11.7602 3.37221 12.7565 4.3685C13.7528 5.36478 14.3125 6.71604 14.3125 8.125V13.4375C14.313 13.8517 14.4778 14.2489 14.7707 14.5418C15.0636 14.8347 15.4608 14.9995 15.875 15C16.1236 15 16.3621 15.0988 16.5379 15.2746C16.7137 15.4504 16.8125 15.6889 16.8125 15.9375V16.25Z" fill="currentColor"/>
<path d="M9.44069 9.8705C9.49963 9.92743 9.57857 9.95892 9.6605 9.95821C9.74244 9.9575 9.82082 9.92463 9.87876 9.86669C9.9367 9.80875 9.96956 9.73038 9.97028 9.64844C9.97099 9.5665 9.93949 9.48756 9.88257 9.42863C9.64457 9.20116 9.32803 9.07422 8.99882 9.07422C8.6696 9.07422 8.35306 9.20116 8.11507 9.42863C8.05814 9.48756 8.02664 9.5665 8.02736 9.64844C8.02807 9.73038 8.06093 9.80875 8.11887 9.86669C8.17681 9.92463 8.25519 9.9575 8.33713 9.95821C8.41906 9.95892 8.498 9.92743 8.55694 9.8705C8.67596 9.7568 8.83422 9.69336 8.99882 9.69336C9.16341 9.69336 9.32168 9.7568 9.44069 9.8705Z" fill="currentColor"/>
<path d="M7.23225 8.54446C7.17533 8.6034 7.14383 8.68234 7.14454 8.76428C7.14526 8.84621 7.17812 8.92459 7.23606 8.98253C7.294 9.04047 7.37238 9.07334 7.45432 9.07405C7.53625 9.07476 7.61519 9.04326 7.67413 8.98634C8.02609 8.63525 8.50293 8.43808 9.00007 8.43808C9.4972 8.43808 9.97404 8.63525 10.326 8.98634C10.3548 9.01619 10.3893 9.03999 10.4274 9.05637C10.4656 9.07275 10.5066 9.08137 10.5481 9.08173C10.5896 9.08209 10.6307 9.07418 10.6691 9.05847C10.7075 9.04276 10.7424 9.01955 10.7718 8.99021C10.8011 8.96087 10.8243 8.92598 10.84 8.88757C10.8557 8.84917 10.8636 8.80802 10.8633 8.76653C10.8629 8.72503 10.8543 8.68403 10.8379 8.6459C10.8215 8.60777 10.7977 8.57329 10.7679 8.54446C10.2986 8.07636 9.66288 7.81348 9.00007 7.81348C8.33726 7.81348 7.7015 8.07636 7.23225 8.54446Z" fill="currentColor"/>
<path d="M6.79031 8.10291C7.37681 7.51771 8.17149 7.18906 9 7.18906C9.82851 7.18906 10.6232 7.51771 11.2097 8.10291C11.2385 8.13276 11.273 8.15656 11.3111 8.17294C11.3492 8.18932 11.3903 8.19794 11.4317 8.1983C11.4732 8.19866 11.5144 8.19075 11.5528 8.17504C11.5912 8.15933 11.6261 8.13612 11.6554 8.10678C11.6848 8.07744 11.708 8.04255 11.7237 8.00415C11.7394 7.96574 11.7473 7.92459 11.747 7.8831C11.7466 7.8416 11.738 7.8006 11.7216 7.76247C11.7052 7.72435 11.6814 7.68986 11.6516 7.66103C10.9478 6.95882 9.99419 6.56445 9 6.56445C8.00581 6.56445 7.05222 6.95882 6.34844 7.66103C6.29151 7.71997 6.26001 7.79891 6.26073 7.88085C6.26144 7.96278 6.2943 8.04116 6.35224 8.0991C6.41018 8.15704 6.48856 8.18991 6.5705 8.19062C6.65244 8.19133 6.73137 8.15983 6.79031 8.10291ZM6.5 12.8126H5.5625V11.2501C5.5625 11.1672 5.52958 11.0877 5.47097 11.0291C5.41237 10.9705 5.33288 10.9376 5.25 10.9376C5.16712 10.9376 5.08763 10.9705 5.02903 11.0291C4.97042 11.0877 4.9375 11.1672 4.9375 11.2501V13.1251C4.9375 13.208 4.97042 13.2875 5.02903 13.3461C5.08763 13.4047 5.16712 13.4376 5.25 13.4376H6.5C6.58288 13.4376 6.66237 13.4047 6.72097 13.3461C6.77958 13.2875 6.8125 13.208 6.8125 13.1251C6.8125 13.0422 6.77958 12.9627 6.72097 12.9041C6.66237 12.8455 6.58288 12.8126 6.5 12.8126ZM7.75 10.9376C7.66712 10.9376 7.58763 10.9705 7.52903 11.0291C7.47042 11.0877 7.4375 11.1672 7.4375 11.2501V13.1251C7.4375 13.208 7.47042 13.2875 7.52903 13.3461C7.58763 13.4047 7.66712 13.4376 7.75 13.4376C7.83288 13.4376 7.91237 13.4047 7.97097 13.3461C8.02958 13.2875 8.0625 13.208 8.0625 13.1251V11.2501C8.0625 11.1672 8.02958 11.0877 7.97097 11.0291C7.91237 10.9705 7.83288 10.9376 7.75 10.9376ZM10.3488 10.9535C10.2701 10.9274 10.1844 10.9336 10.1103 10.9707C10.0362 11.0078 9.97993 11.0728 9.95375 11.1513L9.625 12.137L9.29625 11.1513C9.27006 11.0726 9.21366 11.0075 9.13947 10.9703C9.06528 10.9332 8.97936 10.927 8.90062 10.9532C8.82189 10.9794 8.75678 11.0358 8.71963 11.11C8.68247 11.1842 8.67631 11.2701 8.7025 11.3488L9.3275 13.2238C9.34805 13.2864 9.38781 13.3408 9.44112 13.3794C9.49443 13.418 9.55856 13.4388 9.62438 13.4388C9.69019 13.4388 9.75432 13.418 9.80763 13.3794C9.86094 13.3408 9.9007 13.2864 9.92125 13.2238L10.5463 11.3488C10.5725 11.2702 10.5664 11.1844 10.5294 11.1103C10.4923 11.0362 10.4274 10.9798 10.3488 10.9535ZM12.75 11.5626C12.8329 11.5626 12.9124 11.5297 12.971 11.4711C13.0296 11.4125 13.0625 11.333 13.0625 11.2501C13.0625 11.1672 13.0296 11.0877 12.971 11.0291C12.9124 10.9705 12.8329 10.9376 12.75 10.9376H11.5C11.4171 10.9376 11.3376 10.9705 11.279 11.0291C11.2204 11.0877 11.1875 11.1672 11.1875 11.2501V13.1251C11.1875 13.208 11.2204 13.2875 11.279 13.3461C11.3376 13.4047 11.4171 13.4376 11.5 13.4376H12.75C12.8329 13.4376 12.9124 13.4047 12.971 13.3461C13.0296 13.2875 13.0625 13.208 13.0625 13.1251C13.0625 13.0422 13.0296 12.9627 12.971 12.9041C12.9124 12.8455 12.8329 12.8126 12.75 12.8126H11.8125V12.5001H12.4375C12.5204 12.5001 12.5999 12.4672 12.6585 12.4086C12.7171 12.35 12.75 12.2705 12.75 12.1876C12.75 12.1047 12.7171 12.0252 12.6585 11.9666C12.5999 11.908 12.5204 11.8751 12.4375 11.8751H11.8125V11.5626H12.75Z" fill="currentColor"/>
</svg>
