<svg width="18" height="20" viewBox="0 0 18 20" fill="none" xmlns="http://www.w3.org/2000/svg">
<path d="M8.86512 12.1612H8.51043V11.9732L9.74734 11.0607C10.5538 10.4635 11.0328 9.50848 11.0328 8.505V7.65613C11.53 6.58594 11.8028 5.46422 11.8028 4.48801C11.8028 1.95051 9.87469 0.374023 6.76719 0.374023C3.68094 0.374023 1.76187 1.95051 1.76187 4.48801C1.76187 5.44906 2.02563 6.55863 2.50465 7.61973V8.50496C2.50465 9.50844 2.98668 10.4634 3.79613 11.0607L5.03 11.9702V12.1612H4.67227C2.32879 12.1612 0.421875 14.0681 0.421875 16.4116V18.4883C0.421875 19.1159 0.931211 19.6252 1.55875 19.6252H11.9786C12.6062 19.6252 13.1155 19.1158 13.1155 18.4883V16.4116C13.1155 14.0681 11.2086 12.1612 8.86512 12.1612ZM4.06598 10.6939C3.37477 10.1815 2.95941 9.36297 2.95941 8.505V6.50711C2.95941 5.42781 3.83859 4.55168 4.91785 4.55168H8.62258C9.70184 4.55168 10.578 5.42781 10.578 6.50711V8.505C10.578 9.36598 10.1657 10.1815 9.4775 10.6939L8.14051 11.6792C7.87976 11.8717 7.56426 11.9758 7.24012 11.9763H6.30332C5.9759 11.9763 5.66668 11.8732 5.40293 11.6792L4.06598 10.6939ZM8.05566 12.2491V12.9494C8.05566 13.6709 7.47355 14.2348 6.77023 14.2348C6.06082 14.2348 5.4848 13.6588 5.4848 12.9494V12.2491C5.73949 12.3643 6.01535 12.431 6.30336 12.431H7.24016C7.52207 12.431 7.80102 12.3643 8.05566 12.2491ZM12.6608 18.4883C12.6608 18.8643 12.3546 19.1704 11.9787 19.1704H1.55879C1.18285 19.1704 0.87668 18.8642 0.87668 18.4883V16.4116C0.87668 14.3198 2.58047 12.616 4.67234 12.616H5.03008V12.9495C5.03008 13.9105 5.81227 14.6896 6.77027 14.6896C7.74039 14.6896 8.51047 13.9045 8.51047 12.9495V12.616H8.86516C10.957 12.616 12.6608 14.3198 12.6608 16.4116V18.4883H12.6608Z" fill="currentColor"/>
<path d="M9.15059 16.1207H9.67668V16.6467C9.67779 16.7063 9.70223 16.763 9.74475 16.8048C9.78727 16.8465 9.84448 16.8699 9.90407 16.8699C9.96365 16.8699 10.0209 16.8465 10.0634 16.8048C10.1059 16.763 10.1303 16.7063 10.1314 16.6467V16.1207H10.6573C10.7168 16.1196 10.7736 16.0952 10.8153 16.0527C10.8571 16.0102 10.8805 15.9529 10.8805 15.8934C10.8805 15.8338 10.8571 15.7766 10.8153 15.734C10.7736 15.6915 10.7168 15.6671 10.6573 15.666H10.1314V15.14C10.1303 15.0805 10.1059 15.0237 10.0633 14.982C10.0208 14.9402 9.96361 14.9168 9.90403 14.9168C9.84444 14.9168 9.78723 14.9402 9.74471 14.982C9.70219 15.0237 9.67775 15.0805 9.67664 15.14V15.666H9.15055C9.09098 15.6671 9.03421 15.6915 8.99248 15.7341C8.95074 15.7766 8.92736 15.8338 8.92736 15.8934C8.92737 15.953 8.95076 16.0102 8.9925 16.0527C9.03425 16.0952 9.09101 16.1196 9.15059 16.1207ZM5.67778 7.44535C5.67778 7.13789 5.42762 6.88773 5.12028 6.88773H4.72711C4.66754 6.88884 4.61077 6.91328 4.56903 6.9558C4.52729 6.99833 4.50391 7.05553 4.50391 7.11512C4.50391 7.1747 4.52729 7.23191 4.56903 7.27443C4.61077 7.31695 4.66754 7.3414 4.72711 7.3425H5.12028C5.14753 7.34257 5.17364 7.35344 5.1929 7.37273C5.21215 7.39201 5.22298 7.41814 5.22301 7.44539C5.22412 7.50497 5.24857 7.56173 5.29109 7.60346C5.33362 7.6452 5.39083 7.66858 5.45041 7.66858C5.51 7.66857 5.5672 7.64518 5.60972 7.60344C5.65224 7.56169 5.67668 7.50493 5.67778 7.44535ZM8.09008 7.67273C8.15038 7.67272 8.20821 7.64876 8.25085 7.60612C8.29349 7.56348 8.31745 7.50565 8.31746 7.44535C8.31752 7.41805 8.32839 7.39189 8.34771 7.3726C8.36703 7.35331 8.39321 7.34247 8.42051 7.34246H8.81368C8.87325 7.34136 8.93001 7.31691 8.97176 7.27439C9.0135 7.23187 9.03688 7.17466 9.03688 7.11508C9.03688 7.05549 9.0135 6.99829 8.97176 6.95576C8.93001 6.91324 8.87325 6.8888 8.81368 6.8877H8.42047C8.11286 6.8877 7.8627 7.13785 7.8627 7.44531C7.8627 7.50562 7.88665 7.56346 7.9293 7.60611C7.97194 7.64876 8.02977 7.67272 8.09008 7.67273ZM6.77024 10.4643C7.2318 10.4643 7.69368 10.2933 8.07883 9.95168C8.12292 9.91136 8.14938 9.85532 8.15249 9.79566C8.1556 9.736 8.13511 9.67751 8.09545 9.63282C8.05579 9.58814 8.00015 9.56086 7.94054 9.55687C7.88093 9.55287 7.82214 9.57249 7.77688 9.61148C7.17496 10.1454 6.36586 10.1457 5.76395 9.61148C5.6695 9.52844 5.52621 9.53629 5.44301 9.63059C5.42317 9.65291 5.40792 9.67893 5.39813 9.70715C5.38835 9.73537 5.38422 9.76524 5.38598 9.79506C5.38773 9.82487 5.39535 9.85405 5.40839 9.88093C5.42142 9.9078 5.43963 9.93184 5.46196 9.95168C5.84711 10.2935 6.30868 10.4643 6.77024 10.4643ZM17.5756 16.5964C17.5756 17.0845 17.1784 17.4817 16.6904 17.4817C16.2023 17.4817 15.8051 17.0845 15.8051 16.5964C15.8051 16.1871 16.084 15.8476 16.463 15.7445V15.02C16.463 14.4075 15.9627 13.9104 15.3504 13.9104C14.4893 13.9104 13.786 13.207 13.786 12.343V11.285C12.9311 11.1728 12.2671 10.4421 12.2671 9.55691V7.73789C12.2671 7.28922 12.6309 6.92539 13.0796 6.92539C13.2039 6.92539 13.307 7.02848 13.307 7.15277C13.307 7.27707 13.2039 7.38016 13.0796 7.38016C12.8825 7.38016 12.7219 7.54086 12.7219 7.73789V9.55691C12.7219 10.2694 13.3009 10.8484 14.0134 10.8484C14.7258 10.8484 15.3048 10.2694 15.3048 9.55691V7.73789C15.3048 7.54086 15.1472 7.38016 14.9502 7.38016C14.8228 7.38016 14.7228 7.27707 14.7228 7.15277C14.7228 7.02848 14.8228 6.92539 14.9502 6.92539C15.3958 6.92539 15.7596 7.28918 15.7596 7.73789V9.55691C15.7596 10.4422 15.0987 11.1728 14.2407 11.285V12.343C14.2407 12.9554 14.7379 13.4557 15.3504 13.4557C16.2144 13.4557 16.9177 14.156 16.9177 15.02V15.7446C17.2937 15.8476 17.5756 16.1871 17.5756 16.5964Z" fill="currentColor"/>
</svg>
