<svg width="17" height="20" viewBox="0 0 17 20" fill="none" xmlns="http://www.w3.org/2000/svg">
<path d="M11.2387 13.4985C11.1558 13.4985 11.0763 13.4657 11.0175 13.4073L9.5612 11.951C9.13495 11.5248 8.92495 11.0435 8.93808 10.5204C8.96183 9.54416 9.7712 8.79916 9.80558 8.76791C9.8643 8.71438 9.94124 8.68529 10.0207 8.68656C10.1001 8.68784 10.1761 8.7194 10.2331 8.77479L13.8425 12.276C13.9012 12.3339 13.9347 12.4126 13.9357 12.4951C13.9367 12.5775 13.905 12.657 13.8476 12.7162C13.7902 12.7754 13.7117 12.8096 13.6293 12.8112C13.5468 12.8128 13.4671 12.7817 13.4075 12.7248L10.0281 9.44729C9.83621 9.68354 9.57245 10.0885 9.56245 10.5392C9.55495 10.8885 9.6987 11.2054 10.0031 11.5098L11.4593 12.966C11.5027 13.0098 11.5321 13.0653 11.544 13.1258C11.5559 13.1862 11.5497 13.2488 11.5261 13.3057C11.5025 13.3625 11.4627 13.4112 11.4115 13.4455C11.3604 13.4798 11.3003 13.4983 11.2387 13.4985Z" fill="currentColor"/>
<path d="M11.5025 16.0694C11.4586 16.0694 11.4152 16.0602 11.3752 16.0423C11.3351 16.0244 11.2993 15.9983 11.27 15.9656C10.9163 15.5739 10.6958 15.0802 10.6401 14.5554C10.5844 14.0306 10.6964 13.5016 10.96 13.0444C10.9806 13.0089 11.0079 12.9778 11.0405 12.9528C11.0731 12.9279 11.1102 12.9097 11.1499 12.8991C11.1895 12.8885 11.2308 12.8859 11.2715 12.8913C11.3122 12.8967 11.3514 12.9101 11.3869 12.9306C11.4224 12.9512 11.4535 12.9785 11.4784 13.0111C11.5033 13.0437 11.5216 13.0809 11.5322 13.1205C11.5427 13.1601 11.5454 13.2015 11.54 13.2421C11.5346 13.2828 11.5212 13.322 11.5006 13.3575C11.3031 13.7004 11.2193 14.097 11.2613 14.4905C11.3033 14.884 11.4689 15.254 11.7344 15.5475C11.7749 15.5924 11.8015 15.648 11.811 15.7077C11.8205 15.7674 11.8125 15.8285 11.788 15.8838C11.7634 15.939 11.7234 15.9859 11.6727 16.0189C11.6221 16.0518 11.5629 16.0694 11.5025 16.0694ZM9.875 15.625H4.5625C4.14825 15.6245 3.75111 15.4597 3.45819 15.1668C3.16528 14.8739 3.0005 14.4767 3 14.0625V13.4375C3 13.3546 3.03292 13.2751 3.09153 13.2165C3.15013 13.1579 3.22962 13.125 3.3125 13.125C3.39538 13.125 3.47487 13.1579 3.53347 13.2165C3.59208 13.2751 3.625 13.3546 3.625 13.4375V14.0625C3.625 14.5794 4.04562 15 4.5625 15H9.875C9.95788 15 10.0374 15.0329 10.096 15.0915C10.1546 15.1501 10.1875 15.2296 10.1875 15.3125C10.1875 15.3954 10.1546 15.4749 10.096 15.5335C10.0374 15.5921 9.95788 15.625 9.875 15.625ZM11.4375 9.375C11.3546 9.375 11.2751 9.34208 11.2165 9.28347C11.1579 9.22487 11.125 9.14538 11.125 9.0625V2.1875C11.125 1.67062 10.7044 1.25 10.1875 1.25H4.5625C4.04562 1.25 3.625 1.67062 3.625 2.1875V2.8125C3.625 2.89538 3.59208 2.97487 3.53347 3.03347C3.47487 3.09208 3.39538 3.125 3.3125 3.125C3.22962 3.125 3.15013 3.09208 3.09153 3.03347C3.03292 2.97487 3 2.89538 3 2.8125V2.1875C3 1.32625 3.70125 0.625 4.5625 0.625H10.1875C11.0487 0.625 11.75 1.32625 11.75 2.1875V9.0625C11.75 9.14538 11.7171 9.22487 11.6585 9.28347C11.5999 9.34208 11.5204 9.375 11.4375 9.375ZM10.1875 19.375C10.1046 19.375 10.0251 19.3421 9.96653 19.2835C9.90792 19.2249 9.875 19.1454 9.875 19.0625V17.0719C9.58355 16.9198 9.31695 16.7242 9.08438 16.4919C9.02715 16.4332 8.99527 16.3544 8.99562 16.2724C8.99596 16.1904 9.02849 16.1119 9.08621 16.0537C9.14392 15.9955 9.22219 15.9623 9.30416 15.9612C9.38612 15.9602 9.4652 15.9914 9.52437 16.0481C9.75875 16.2812 10.0244 16.4625 10.3125 16.5881C10.4263 16.6381 10.5 16.7506 10.5 16.8744V19.0619C10.5001 19.103 10.4921 19.1437 10.4764 19.1817C10.4607 19.2196 10.4377 19.2542 10.4087 19.2833C10.3797 19.3123 10.3452 19.3354 10.3072 19.3512C10.2693 19.3669 10.2286 19.375 10.1875 19.375Z" fill="currentColor"/>
<path d="M15.8125 19.375C15.7296 19.375 15.6501 19.3421 15.5915 19.2835C15.5329 19.2249 15.5 19.1454 15.5 19.0625V12.1488C15.5 11.8837 15.3375 11.485 15.1519 11.2969L11.2812 7.40812C11.2515 7.37921 11.2278 7.34466 11.2115 7.30649C11.1953 7.26832 11.1868 7.2273 11.1865 7.18581C11.1863 7.14432 11.1943 7.1032 11.2101 7.06485C11.226 7.02649 11.2493 6.99167 11.2787 6.96242C11.3081 6.93316 11.3431 6.91006 11.3815 6.89446C11.4199 6.87885 11.4611 6.87106 11.5026 6.87153C11.5441 6.87201 11.5851 6.88074 11.6231 6.89721C11.6612 6.91369 11.6956 6.93758 11.7244 6.9675L15.5962 10.8575C15.8981 11.1644 16.125 11.7188 16.125 12.1488V19.0625C16.125 19.1454 16.0921 19.2249 16.0335 19.2835C15.9749 19.3421 15.8954 19.375 15.8125 19.375ZM7.6875 14.375H7.0625C6.97962 14.375 6.90013 14.3421 6.84153 14.2835C6.78292 14.2249 6.75 14.1454 6.75 14.0625C6.75 13.9796 6.78292 13.9001 6.84153 13.8415C6.90013 13.7829 6.97962 13.75 7.0625 13.75H7.6875C7.77038 13.75 7.84987 13.7829 7.90847 13.8415C7.96708 13.9001 8 13.9796 8 14.0625C8 14.1454 7.96708 14.2249 7.90847 14.2835C7.84987 14.3421 7.77038 14.375 7.6875 14.375ZM8.3125 2.5H6.4375C6.35462 2.5 6.27513 2.46708 6.21653 2.40847C6.15792 2.34987 6.125 2.27038 6.125 2.1875C6.125 2.10462 6.15792 2.02513 6.21653 1.96653C6.27513 1.90792 6.35462 1.875 6.4375 1.875H8.3125C8.39538 1.875 8.47487 1.90792 8.53347 1.96653C8.59208 2.02513 8.625 2.10462 8.625 2.1875C8.625 2.27038 8.59208 2.34987 8.53347 2.40847C8.47487 2.46708 8.39538 2.5 8.3125 2.5ZM3.3125 12.5C3.26863 12.5 3.22524 12.4908 3.18518 12.4729C3.14512 12.4551 3.10928 12.4289 3.08 12.3962C2.96188 12.2656 0.1875 9.155 0.1875 6.7675C0.1875 5.10375 1.58938 3.75 3.3125 3.75C5.03562 3.75 6.4375 5.10375 6.4375 6.7675C6.4375 9.155 3.66312 12.265 3.545 12.3962C3.51572 12.4289 3.47988 12.4551 3.43982 12.4729C3.39976 12.4908 3.35637 12.5 3.3125 12.5ZM3.3125 4.375C1.93375 4.375 0.8125 5.44812 0.8125 6.7675C0.8125 8.54063 2.65188 10.9125 3.3125 11.7062C3.9725 10.9119 5.8125 8.53875 5.8125 6.7675C5.8125 5.44812 4.69125 4.375 3.3125 4.375Z" fill="currentColor"/>
<path d="M3.3125 8.4375C2.45125 8.4375 1.75 7.73625 1.75 6.875C1.75 6.01375 2.45125 5.3125 3.3125 5.3125C4.17375 5.3125 4.875 6.01375 4.875 6.875C4.875 7.73625 4.17375 8.4375 3.3125 8.4375ZM3.3125 5.9375C2.79562 5.9375 2.375 6.35812 2.375 6.875C2.375 7.39188 2.79562 7.8125 3.3125 7.8125C3.82938 7.8125 4.25 7.39188 4.25 6.875C4.25 6.35812 3.82938 5.9375 3.3125 5.9375Z" fill="currentColor"/>
</svg>
