<svg width="20" height="20" viewBox="0 0 20 20" fill="none" xmlns="http://www.w3.org/2000/svg">
<g clip-path="url(#clip0_1536_2624)">
<path fill-rule="evenodd" clip-rule="evenodd" d="M13.7891 12.3047H6.21094C5.85938 12.3047 5.58594 12.0312 5.58594 11.6797V0.625C5.58594 0.273438 5.85938 0 6.21094 0H12.3047C12.4609 0 12.5781 0.117188 12.5781 0.273438C12.5781 0.429688 12.4609 0.546875 12.3047 0.546875H6.21094C6.17188 0.546875 6.13281 0.585938 6.13281 0.625V11.6797C6.13281 11.7188 6.17188 11.7578 6.21094 11.7578H13.7891C13.8281 11.7578 13.8672 11.7188 13.8672 11.6797V1.875C13.8672 1.71875 13.9844 1.60156 14.1406 1.60156C14.2969 1.60156 14.4141 1.71875 14.4141 1.875V11.6797C14.4141 12.0312 14.1406 12.3047 13.7891 12.3047Z" fill="currentColor"/>
<path fill-rule="evenodd" clip-rule="evenodd" d="M14.1406 2.14871H12.3047C12.1484 2.14871 12.0312 2.03152 12.0312 1.87527V0.273705C12.0312 0.156518 12.1094 0.0783927 12.1875 0.0393302C12.3047 0.000267745 12.3828 0.000267745 12.5 0.0783927L14.3359 1.67996C14.4141 1.75808 14.4531 1.87527 14.4141 1.95339C14.375 2.07058 14.2578 2.14871 14.1406 2.14871ZM12.5781 1.60183H13.3984L12.5781 0.859643V1.60183ZM13.0469 8.24246H6.95312C6.79688 8.24246 6.67969 8.12527 6.67969 7.96902C6.67969 7.81277 6.79688 7.69558 6.95312 7.69558H13.0469C13.2031 7.69558 13.3203 7.81277 13.3203 7.96902C13.3203 8.12527 13.2031 8.24246 13.0469 8.24246ZM13.0469 9.37527H6.95312C6.79688 9.37527 6.67969 9.25808 6.67969 9.10183C6.67969 8.94558 6.79688 8.82839 6.95312 8.82839H13.0469C13.2031 8.82839 13.3203 8.94558 13.3203 9.10183C13.3203 9.25808 13.2031 9.37527 13.0469 9.37527ZM13.0469 10.5081H6.95312C6.79688 10.5081 6.67969 10.3909 6.67969 10.2346C6.67969 10.0784 6.79688 9.96121 6.95312 9.96121H13.0469C13.2031 9.96121 13.3203 10.0784 13.3203 10.2346C13.3203 10.3909 13.2031 10.5081 13.0469 10.5081ZM10 7.42214H9.92188C8.75 7.03152 8.00781 6.05496 7.77344 4.60964C7.69531 4.06277 7.65625 3.55496 7.69531 3.08621V2.77371C7.69531 2.69558 7.73438 2.61746 7.77344 2.57839C7.85156 2.50027 7.92969 2.50027 8.00781 2.50027C8.51562 2.57839 8.98438 2.46121 9.375 2.18777H9.41406C9.49219 2.14871 9.57031 2.07058 9.6875 1.99246C9.72656 1.95339 9.76562 1.91433 9.84375 1.87527C9.92188 1.79714 10.0781 1.79714 10.1562 1.87527C10.2344 1.91433 10.2734 1.95339 10.3516 1.99246C10.4297 2.07058 10.5078 2.14871 10.5859 2.18777H10.625C11.0156 2.46121 11.5234 2.57839 11.9922 2.50027C12.0703 2.50027 12.1484 2.50027 12.2266 2.57839C12.2656 2.61746 12.3047 2.69558 12.3047 2.77371V3.08621C12.3438 3.51589 12.3047 4.02371 12.2266 4.60964C11.9922 6.09402 11.25 7.03152 10.0781 7.42214H10ZM8.24219 3.08621V3.12527C8.20312 3.55496 8.24219 4.02371 8.32031 4.53152C8.47656 5.35183 8.86719 6.44558 10 6.87527C10.8984 6.52371 11.4844 5.74246 11.6797 4.53152C11.7578 3.98464 11.7969 3.51589 11.7578 3.12527V3.08621C11.25 3.08621 10.7812 2.92996 10.3516 2.65652L10 2.42214C9.88281 2.50027 9.80469 2.57839 9.6875 2.65652C9.25781 2.92996 8.75 3.08621 8.24219 3.08621Z" fill="currentColor"/>
<path fill-rule="evenodd" clip-rule="evenodd" d="M9.49193 5.625C9.4138 5.625 9.37474 5.58594 9.29662 5.54688L8.82787 5.11719C8.74974 5.03906 8.71068 4.84375 8.82787 4.72656C8.94505 4.60938 9.1013 4.60938 9.21849 4.72656L9.49193 4.96094L10.781 3.67188C10.8982 3.55469 11.0544 3.55469 11.1716 3.67188C11.2888 3.78906 11.2888 3.94531 11.1716 4.0625L9.68724 5.54688C9.64818 5.58594 9.57005 5.625 9.49193 5.625Z" fill="currentColor"/>
<path fill-rule="evenodd" clip-rule="evenodd" d="M19.1016 15.8203H0.898438C0.742188 15.8203 0.625 15.7031 0.625 15.5469V3.94531C0.625 3.78906 0.742188 3.67188 0.898438 3.67188H5.85938C6.01562 3.67188 6.13281 3.78906 6.13281 3.94531C6.13281 4.10156 6.01562 4.21875 5.85938 4.21875H1.17188V15.2734H18.8281V4.21875H14.1406C13.9844 4.21875 13.8672 4.10156 13.8672 3.94531C13.8672 3.78906 13.9844 3.67188 14.1406 3.67188H19.1016C19.2578 3.67188 19.375 3.78906 19.375 3.94531V15.5469C19.375 15.7031 19.2578 15.8203 19.1016 15.8203Z" fill="currentColor"/>
<path fill-rule="evenodd" clip-rule="evenodd" d="M19.1016 13.5938H0.898438C0.742188 13.5938 0.625 13.4766 0.625 13.3203C0.625 13.1641 0.742188 13.0469 0.898438 13.0469H19.1016C19.2578 13.0469 19.375 13.1641 19.375 13.3203C19.375 13.4766 19.2578 13.5938 19.1016 13.5938ZM11.3672 18.0078C11.2109 18.0078 11.0938 17.8906 11.0938 17.7344V15.5469C11.0938 15.3906 11.2109 15.2734 11.3672 15.2734C11.5234 15.2734 11.6406 15.3906 11.6406 15.5469V17.7344C11.6406 17.8906 11.5234 18.0078 11.3672 18.0078ZM8.63281 18.0078C8.47656 18.0078 8.35938 17.8906 8.35938 17.7344V15.5469C8.35938 15.3906 8.47656 15.2734 8.63281 15.2734C8.78906 15.2734 8.90625 15.3906 8.90625 15.5469V17.7344C8.90625 17.8906 8.78906 18.0078 8.63281 18.0078Z" fill="currentColor"/>
<path fill-rule="evenodd" clip-rule="evenodd" d="M15.3906 20H4.60938C4.45312 20 4.33594 19.8828 4.33594 19.7266V18.7109C4.33594 18.0078 4.88281 17.4609 5.58594 17.4609H14.4141C15.1172 17.4609 15.6641 18.0078 15.6641 18.7109V19.7266C15.6641 19.8828 15.5469 20 15.3906 20ZM4.88281 19.4531H15.1172V18.7109C15.1172 18.3203 14.8047 18.0078 14.4141 18.0078H5.58594C5.19531 18.0078 4.88281 18.3203 4.88281 18.7109V19.4531ZM17.9297 14.6875H16.6406C16.4844 14.6875 16.3672 14.5703 16.3672 14.4141C16.3672 14.2578 16.4844 14.1406 16.6406 14.1406H17.9297C18.0859 14.1406 18.2031 14.2578 18.2031 14.4141C18.2031 14.5703 18.0859 14.6875 17.9297 14.6875Z" fill="currentColor"/>
<path fill-rule="evenodd" clip-rule="evenodd" d="M16.9531 20H3.04688C2.89062 20 2.77344 19.8828 2.77344 19.7266C2.77344 19.5703 2.89062 19.4531 3.04688 19.4531H16.9531C17.1094 19.4531 17.2266 19.5703 17.2266 19.7266C17.2266 19.8828 17.1094 20 16.9531 20Z" fill="currentColor"/>
</g>
<defs>
<clipPath id="clip0_1536_2624">
<rect width="20" height="20" fill="white"/>
</clipPath>
</defs>
</svg>
